<svg width="91" height="9" viewBox="0 0 91 9" fill="none" xmlns="http://www.w3.org/2000/svg">
<path d="M3.75684 8.84204C3.34863 8.84204 2.97266 8.77222 2.62891 8.63257C2.28874 8.49292 1.99691 8.29777 1.75342 8.04712C1.50993 7.79647 1.32015 7.49927 1.18408 7.15552C1.04801 6.81177 0.97998 6.43758 0.97998 6.03296V5.80737C0.97998 5.3383 1.05518 4.91935 1.20557 4.55054C1.35596 4.17814 1.55648 3.86304 1.80713 3.60522C2.0542 3.35099 2.33529 3.15584 2.65039 3.01978C2.96908 2.88371 3.29492 2.81567 3.62793 2.81567C4.04688 2.81567 4.41211 2.88908 4.72363 3.03589C5.03874 3.17912 5.30013 3.37785 5.50781 3.63208C5.71549 3.88989 5.86947 4.19246 5.96973 4.53979C6.07357 4.88713 6.12549 5.2631 6.12549 5.66772V6.11353H1.97363V6.15112C1.9987 6.434 2.0542 6.68286 2.14014 6.89771C2.22965 7.11255 2.3514 7.30233 2.50537 7.46704C2.66292 7.6425 2.8527 7.78035 3.07471 7.88062C3.29671 7.98088 3.54199 8.03101 3.81055 8.03101C4.16504 8.03101 4.48014 7.95939 4.75586 7.81616C5.03158 7.67293 5.26074 7.48315 5.44336 7.24683L6.05029 7.71948C5.85693 8.0131 5.56689 8.2745 5.18018 8.50366C4.79704 8.72925 4.32259 8.84204 3.75684 8.84204ZM3.62793 3.63208C3.42741 3.63208 3.23763 3.66968 3.05859 3.74487C2.87956 3.81649 2.71842 3.92212 2.5752 4.06177C2.43197 4.205 2.31022 4.38045 2.20996 4.58813C2.11328 4.79224 2.04525 5.02856 2.00586 5.29712H5.13184V5.24878C5.13184 5.06974 5.09782 4.87817 5.02979 4.67407C4.96175 4.46639 4.86686 4.28735 4.74512 4.13696C4.62337 3.98657 4.4694 3.86483 4.2832 3.77173C4.10059 3.67863 3.88216 3.63208 3.62793 3.63208ZM10.1484 1.51587V2.9231H12.3613V3.69116H10.1484V6.84937C10.1484 7.07495 10.1771 7.26115 10.2344 7.40796C10.2917 7.55477 10.3704 7.67114 10.4707 7.75708C10.571 7.8466 10.6855 7.90926 10.8145 7.94507C10.9469 7.98088 11.0866 7.99878 11.2334 7.99878C11.3408 7.99878 11.4518 7.99341 11.5664 7.98267C11.681 7.96834 11.7938 7.95223 11.9048 7.93433C12.0122 7.91642 12.1125 7.89852 12.2056 7.88062C12.3022 7.85913 12.381 7.84123 12.4419 7.8269L12.5815 8.53052C12.4992 8.58065 12.3989 8.62541 12.2808 8.66479C12.1626 8.7006 12.0337 8.73104 11.894 8.7561C11.7544 8.78475 11.6058 8.80623 11.4482 8.82056C11.2943 8.83488 11.1403 8.84204 10.9863 8.84204C10.7285 8.84204 10.4868 8.80623 10.2612 8.73462C10.0392 8.65942 9.84587 8.54126 9.68115 8.38013C9.51644 8.22257 9.38574 8.01847 9.28906 7.76782C9.19596 7.51359 9.14941 7.20744 9.14941 6.84937V3.69116H7.62402V2.9231H9.14941V1.51587H10.1484ZM20.8208 5.78052C20.8208 5.34725 20.8745 4.94979 20.9819 4.58813C21.0929 4.2229 21.2505 3.90959 21.4546 3.64819C21.6551 3.3868 21.8986 3.1827 22.1851 3.03589C22.4715 2.88908 22.792 2.81567 23.1465 2.81567C23.4938 2.81567 23.7964 2.87476 24.0542 2.99292C24.3156 3.1075 24.5412 3.2758 24.731 3.4978V0.484619H25.7246V8.73462H24.8115L24.7686 8.12231C24.5752 8.35864 24.3442 8.53768 24.0757 8.65942C23.8071 8.78117 23.4938 8.84204 23.1357 8.84204C22.7848 8.84204 22.4661 8.76685 22.1797 8.61646C21.8968 8.46606 21.6551 8.25838 21.4546 7.99341C21.2541 7.72843 21.0983 7.41691 20.9873 7.05884C20.8763 6.69718 20.8208 6.30868 20.8208 5.89331V5.78052ZM21.8145 5.89331C21.8145 6.17619 21.8449 6.44474 21.9058 6.69897C21.9666 6.95321 22.0615 7.177 22.1904 7.37036C22.3158 7.56372 22.4769 7.71769 22.6738 7.83228C22.8708 7.94328 23.1071 7.99878 23.3828 7.99878C23.7158 7.99878 23.9915 7.92358 24.21 7.77319C24.4284 7.6228 24.6021 7.42049 24.731 7.16626V4.46997C24.6021 4.23364 24.4284 4.04028 24.21 3.88989C23.9915 3.73592 23.7194 3.65894 23.3936 3.65894C23.1143 3.65894 22.8743 3.71623 22.6738 3.83081C22.4769 3.94539 22.3158 4.09937 22.1904 4.29272C22.0615 4.48966 21.9666 4.71704 21.9058 4.97485C21.8449 5.22909 21.8145 5.49764 21.8145 5.78052V5.89331ZM30.6338 1.15601C30.6338 1.3243 30.6123 1.50155 30.5693 1.68774C30.5299 1.87394 30.4709 2.05656 30.3921 2.2356C30.3097 2.41821 30.2113 2.59188 30.0967 2.75659C29.9821 2.92131 29.8496 3.06812 29.6992 3.19702L29.1567 2.8103C29.325 2.55607 29.4504 2.29647 29.5327 2.03149C29.6187 1.76652 29.6616 1.48006 29.6616 1.17212V0.366455H30.6338V1.15601ZM38.0405 8.73462C38.0011 8.65942 37.9689 8.56632 37.9438 8.45532C37.9224 8.34074 37.9062 8.22257 37.8955 8.10083C37.7952 8.20109 37.6825 8.29598 37.5571 8.3855C37.4354 8.47502 37.3011 8.55379 37.1543 8.62183C37.0039 8.68986 36.8446 8.74357 36.6763 8.78296C36.508 8.82235 36.3289 8.84204 36.1392 8.84204C35.8312 8.84204 35.5519 8.79728 35.3013 8.70776C35.0542 8.61825 34.8447 8.4965 34.6729 8.34253C34.4974 8.19214 34.3613 8.0131 34.2646 7.80542C34.1715 7.59416 34.125 7.36678 34.125 7.12329C34.125 6.80461 34.1877 6.52531 34.313 6.2854C34.4419 6.04549 34.6227 5.84497 34.8555 5.68384C35.0882 5.52629 35.3675 5.40812 35.6934 5.32935C36.0228 5.25057 36.3898 5.21118 36.7944 5.21118H37.8794V4.75464C37.8794 4.57918 37.8472 4.42163 37.7827 4.28198C37.7183 4.14233 37.627 4.02238 37.5088 3.92212C37.3906 3.82544 37.2456 3.75024 37.0737 3.69653C36.9054 3.64282 36.7157 3.61597 36.5044 3.61597C36.3075 3.61597 36.1302 3.64103 35.9727 3.69116C35.8187 3.74129 35.688 3.80754 35.5806 3.88989C35.4731 3.97225 35.389 4.07072 35.3281 4.1853C35.2708 4.29631 35.2422 4.41268 35.2422 4.53442H34.2432C34.2467 4.32316 34.3005 4.11548 34.4043 3.91138C34.5117 3.70728 34.6657 3.52287 34.8662 3.35815C35.0632 3.19702 35.3031 3.06632 35.5859 2.96606C35.8724 2.8658 36.1965 2.81567 36.5581 2.81567C36.8875 2.81567 37.1937 2.85685 37.4766 2.93921C37.7594 3.01799 38.0047 3.13794 38.2124 3.29907C38.4165 3.46379 38.5776 3.66789 38.6958 3.91138C38.814 4.15487 38.873 4.43953 38.873 4.76538V7.46704C38.873 7.6604 38.891 7.86629 38.9268 8.08472C38.9626 8.29956 39.0127 8.48755 39.0771 8.64868V8.73462H38.0405ZM36.2842 7.97729C36.4775 7.97729 36.6584 7.95223 36.8267 7.9021C36.995 7.85197 37.1489 7.78573 37.2886 7.70337C37.4246 7.62101 37.5428 7.52791 37.6431 7.42407C37.7433 7.31665 37.8221 7.20565 37.8794 7.09106V5.91479H36.9556C36.6118 5.91479 36.311 5.94523 36.0532 6.0061C35.799 6.0634 35.5967 6.15291 35.4463 6.27466C35.3389 6.3606 35.2565 6.46265 35.1992 6.58081C35.1455 6.69897 35.1187 6.83325 35.1187 6.98364C35.1187 7.12687 35.1419 7.25936 35.1885 7.3811C35.2386 7.50285 35.312 7.60669 35.4087 7.69263C35.5054 7.78215 35.6271 7.85197 35.7739 7.9021C35.9207 7.95223 36.0908 7.97729 36.2842 7.97729ZM44.6577 8.73462L44.5986 7.93433C44.4053 8.22078 44.1636 8.44458 43.8735 8.60571C43.5835 8.76326 43.2487 8.84204 42.8691 8.84204C42.5648 8.84204 42.2891 8.79549 42.042 8.70239C41.7949 8.60571 41.5837 8.45711 41.4082 8.25659C41.2327 8.05607 41.0967 7.80184 41 7.4939C40.9069 7.18237 40.8604 6.80998 40.8604 6.37671V2.9231H41.854V6.38745C41.854 6.70256 41.8791 6.96395 41.9292 7.17163C41.9793 7.37931 42.0545 7.54403 42.1548 7.66577C42.255 7.7911 42.3768 7.87882 42.52 7.92896C42.6668 7.97909 42.8351 8.00415 43.0249 8.00415C43.2469 8.00415 43.4456 7.97909 43.6211 7.92896C43.7965 7.87524 43.9487 7.80184 44.0776 7.70874C44.1851 7.63354 44.2782 7.54403 44.3569 7.44019C44.4393 7.33276 44.5073 7.21639 44.561 7.09106V2.9231H45.5601V8.73462H44.6577ZM49.7871 1.51587V2.9231H52V3.69116H49.7871V6.84937C49.7871 7.07495 49.8158 7.26115 49.873 7.40796C49.9303 7.55477 50.0091 7.67114 50.1094 7.75708C50.2096 7.8466 50.3242 7.90926 50.4531 7.94507C50.5856 7.98088 50.7253 7.99878 50.8721 7.99878C50.9795 7.99878 51.0905 7.99341 51.2051 7.98267C51.3197 7.96834 51.4325 7.95223 51.5435 7.93433C51.6509 7.91642 51.7511 7.89852 51.8442 7.88062C51.9409 7.85913 52.0197 7.84123 52.0806 7.8269L52.2202 8.53052C52.1379 8.58065 52.0376 8.62541 51.9194 8.66479C51.8013 8.7006 51.6724 8.73104 51.5327 8.7561C51.3931 8.78475 51.2445 8.80623 51.0869 8.82056C50.9329 8.83488 50.779 8.84204 50.625 8.84204C50.3672 8.84204 50.1255 8.80623 49.8999 8.73462C49.6779 8.65942 49.4845 8.54126 49.3198 8.38013C49.1551 8.22257 49.0244 8.01847 48.9277 7.76782C48.8346 7.51359 48.7881 7.20744 48.7881 6.84937V3.69116H47.2627V2.9231H48.7881V1.51587H49.7871ZM57.8491 2.81567C58.0317 2.81567 58.2215 2.82821 58.4185 2.85327C58.619 2.87834 58.7694 2.91235 58.8696 2.95532L58.7354 3.92749C58.542 3.88452 58.3576 3.85409 58.1821 3.83618C58.0103 3.8147 57.8294 3.80396 57.6396 3.80396C57.3962 3.80396 57.1759 3.83439 56.979 3.89526C56.7821 3.95256 56.6102 4.03849 56.4634 4.15308C56.3309 4.25334 56.2145 4.37687 56.1143 4.52368C56.0176 4.66691 55.937 4.82804 55.8726 5.00708V8.73462H54.8735V2.9231H55.8188L55.8618 3.7019L55.8672 3.84692C56.1035 3.52824 56.3864 3.27759 56.7158 3.09497C57.0488 2.90877 57.4266 2.81567 57.8491 2.81567ZM63.2148 8.84204C62.8066 8.84204 62.4307 8.77222 62.0869 8.63257C61.7467 8.49292 61.4549 8.29777 61.2114 8.04712C60.9679 7.79647 60.7782 7.49927 60.6421 7.15552C60.506 6.81177 60.438 6.43758 60.438 6.03296V5.80737C60.438 5.3383 60.5132 4.91935 60.6636 4.55054C60.814 4.17814 61.0145 3.86304 61.2651 3.60522C61.5122 3.35099 61.7933 3.15584 62.1084 3.01978C62.4271 2.88371 62.7529 2.81567 63.0859 2.81567C63.5049 2.81567 63.8701 2.88908 64.1816 3.03589C64.4967 3.17912 64.7581 3.37785 64.9658 3.63208C65.1735 3.88989 65.3275 4.19246 65.4277 4.53979C65.5316 4.88713 65.5835 5.2631 65.5835 5.66772V6.11353H61.4316V6.15112C61.4567 6.434 61.5122 6.68286 61.5981 6.89771C61.6877 7.11255 61.8094 7.30233 61.9634 7.46704C62.1209 7.6425 62.3107 7.78035 62.5327 7.88062C62.7547 7.98088 63 8.03101 63.2686 8.03101C63.623 8.03101 63.9382 7.95939 64.2139 7.81616C64.4896 7.67293 64.7188 7.48315 64.9014 7.24683L65.5083 7.71948C65.3149 8.0131 65.0249 8.2745 64.6382 8.50366C64.255 8.72925 63.7806 8.84204 63.2148 8.84204ZM63.0859 3.63208C62.8854 3.63208 62.6956 3.66968 62.5166 3.74487C62.3376 3.81649 62.1764 3.92212 62.0332 4.06177C61.89 4.205 61.7682 4.38045 61.668 4.58813C61.5713 4.79224 61.5033 5.02856 61.4639 5.29712H64.5898V5.24878C64.5898 5.06974 64.5558 4.87817 64.4878 4.67407C64.4198 4.46639 64.3249 4.28735 64.2031 4.13696C64.0814 3.98657 63.9274 3.86483 63.7412 3.77173C63.5586 3.67863 63.3402 3.63208 63.0859 3.63208ZM71.1157 7.19312C71.1157 7.07495 71.0924 6.96932 71.0459 6.87622C70.9993 6.77954 70.9206 6.69181 70.8096 6.61304C70.6986 6.53426 70.5518 6.46265 70.3691 6.39819C70.1865 6.33016 69.9591 6.26929 69.687 6.21558C69.354 6.14754 69.0496 6.06519 68.7739 5.96851C68.5018 5.87183 68.269 5.75545 68.0757 5.61938C67.8787 5.4869 67.7266 5.33114 67.6191 5.1521C67.5117 4.96948 67.458 4.75822 67.458 4.51831C67.458 4.28198 67.5135 4.06177 67.6245 3.85767C67.7355 3.64998 67.8913 3.46916 68.0918 3.31519C68.2923 3.16121 68.5304 3.03947 68.8062 2.94995C69.0854 2.86043 69.3916 2.81567 69.7246 2.81567C70.0827 2.81567 70.4049 2.86222 70.6914 2.95532C70.9779 3.04842 71.2214 3.17733 71.4219 3.34204C71.6224 3.50675 71.7764 3.70011 71.8838 3.92212C71.9948 4.14054 72.0503 4.37687 72.0503 4.6311H71.0566C71.0566 4.50578 71.0244 4.38403 70.96 4.26587C70.8955 4.14412 70.806 4.0367 70.6914 3.9436C70.5768 3.8505 70.4372 3.77531 70.2725 3.71802C70.1113 3.66073 69.9287 3.63208 69.7246 3.63208C69.5133 3.63208 69.3271 3.65535 69.166 3.7019C69.0085 3.74845 68.8778 3.81112 68.7739 3.88989C68.6665 3.96867 68.5859 4.05998 68.5322 4.16382C68.4785 4.26766 68.4517 4.37508 68.4517 4.48608C68.4517 4.60067 68.4731 4.70272 68.5161 4.79224C68.5591 4.88175 68.6343 4.96232 68.7417 5.03394C68.8455 5.10555 68.9852 5.17 69.1606 5.22729C69.3397 5.28459 69.5653 5.34009 69.8374 5.3938C70.1955 5.46899 70.516 5.55672 70.7988 5.65698C71.0817 5.75366 71.3198 5.87004 71.5132 6.0061C71.7065 6.14575 71.8534 6.30688 71.9536 6.4895C72.0575 6.67212 72.1094 6.88338 72.1094 7.12329C72.1094 7.3811 72.0503 7.61564 71.9321 7.8269C71.8175 8.03817 71.6564 8.21899 71.4487 8.36938C71.241 8.51978 70.9922 8.63615 70.7021 8.71851C70.4121 8.80086 70.0952 8.84204 69.7515 8.84204C69.3576 8.84204 69.0067 8.79012 68.6987 8.68628C68.3908 8.57886 68.1312 8.43742 67.9199 8.26196C67.7051 8.09009 67.5404 7.88957 67.4258 7.6604C67.3148 7.43123 67.2593 7.19312 67.2593 6.94604H68.2529C68.2673 7.15015 68.321 7.32202 68.4141 7.46167C68.5107 7.60132 68.6307 7.71411 68.7739 7.80005C68.9136 7.88599 69.0693 7.94686 69.2412 7.98267C69.4131 8.01847 69.5832 8.03638 69.7515 8.03638C70.0164 8.03638 70.2474 8.00594 70.4443 7.94507C70.6413 7.88062 70.7952 7.79289 70.9062 7.68188C70.9743 7.61385 71.0262 7.53866 71.062 7.4563C71.0978 7.37394 71.1157 7.28621 71.1157 7.19312ZM75.5898 8.09009C75.5898 7.87882 75.6543 7.698 75.7832 7.54761C75.9121 7.39722 76.1073 7.32202 76.3687 7.32202C76.6265 7.32202 76.8216 7.39722 76.9541 7.54761C77.0902 7.69442 77.1582 7.87524 77.1582 8.09009C77.1582 8.30135 77.0902 8.4786 76.9541 8.62183C76.818 8.76506 76.6229 8.83667 76.3687 8.83667C76.1108 8.83667 75.9157 8.76506 75.7832 8.62183C75.6543 8.47502 75.5898 8.29777 75.5898 8.09009ZM82.1963 8.09009C82.1963 7.87882 82.2607 7.698 82.3896 7.54761C82.5186 7.39722 82.7137 7.32202 82.9751 7.32202C83.2329 7.32202 83.4281 7.39722 83.5605 7.54761C83.6966 7.69442 83.7646 7.87524 83.7646 8.09009C83.7646 8.30135 83.6966 8.4786 83.5605 8.62183C83.4245 8.76506 83.2293 8.83667 82.9751 8.83667C82.7173 8.83667 82.5221 8.76506 82.3896 8.62183C82.2607 8.47502 82.1963 8.29777 82.1963 8.09009ZM88.8027 8.09009C88.8027 7.87882 88.8672 7.698 88.9961 7.54761C89.125 7.39722 89.3201 7.32202 89.5815 7.32202C89.8394 7.32202 90.0345 7.39722 90.167 7.54761C90.3031 7.69442 90.3711 7.87524 90.3711 8.09009C90.3711 8.30135 90.3031 8.4786 90.167 8.62183C90.0309 8.76506 89.8358 8.83667 89.5815 8.83667C89.3237 8.83667 89.1286 8.76506 88.9961 8.62183C88.8672 8.47502 88.8027 8.29777 88.8027 8.09009Z" fill="black"/>
</svg>
