<svg width="88" height="20" viewBox="0 0 88 20" fill="none" xmlns="http://www.w3.org/2000/svg">
<path d="M35.704 1.576C36.6533 1.576 37.432 1.69867 38.04 1.944C38.6587 2.17867 39.1173 2.536 39.416 3.016C39.7147 3.496 39.864 4.09867 39.864 4.824C39.864 5.432 39.752 5.93867 39.528 6.344C39.304 6.74933 39.016 7.07467 38.664 7.32C38.3227 7.55467 37.96 7.74133 37.576 7.88L40.712 13H39.032L36.264 8.28H33.992V13H32.552V1.576H35.704ZM35.624 2.824H33.992V7.064H35.704C36.3227 7.064 36.8293 6.984 37.224 6.824C37.6187 6.65333 37.9067 6.408 38.088 6.088C38.28 5.768 38.376 5.368 38.376 4.888C38.376 4.38667 38.2747 3.98667 38.072 3.688C37.88 3.38933 37.5813 3.17067 37.176 3.032C36.7707 2.89333 36.2533 2.824 35.624 2.824ZM45.6251 4.264C46.3611 4.264 46.9905 4.424 47.5131 4.744C48.0465 5.064 48.4518 5.51733 48.7291 6.104C49.0171 6.68 49.1611 7.35733 49.1611 8.136V8.984H43.2891C43.3105 9.95467 43.5558 10.696 44.0251 11.208C44.5051 11.7093 45.1718 11.96 46.0251 11.96C46.5691 11.96 47.0491 11.912 47.4651 11.816C47.8918 11.7093 48.3291 11.56 48.7771 11.368V12.6C48.3398 12.792 47.9078 12.9307 47.4811 13.016C47.0545 13.112 46.5478 13.16 45.9611 13.16C45.1505 13.16 44.4305 12.9947 43.8011 12.664C43.1825 12.3333 42.6971 11.8427 42.3451 11.192C42.0038 10.5307 41.8331 9.72533 41.8331 8.776C41.8331 7.83733 41.9878 7.032 42.2971 6.36C42.6171 5.688 43.0598 5.17067 43.6251 4.808C44.2011 4.44533 44.8678 4.264 45.6251 4.264ZM45.6091 5.416C44.9371 5.416 44.4038 5.63467 44.0091 6.072C43.6251 6.49867 43.3958 7.096 43.3211 7.864H47.6891C47.6891 7.37333 47.6145 6.94667 47.4651 6.584C47.3158 6.22133 47.0865 5.93867 46.7771 5.736C46.4785 5.52267 46.0891 5.416 45.6091 5.416ZM54.2084 12.008C54.4217 12.008 54.6404 11.992 54.8644 11.96C55.0884 11.9173 55.2697 11.8747 55.4084 11.832V12.904C55.259 12.9787 55.0457 13.0373 54.7684 13.08C54.491 13.1333 54.2244 13.16 53.9684 13.16C53.5204 13.16 53.1044 13.0853 52.7204 12.936C52.347 12.776 52.043 12.504 51.8084 12.12C51.5737 11.736 51.4564 11.1973 51.4564 10.504V5.512H50.2404V4.84L51.4724 4.28L52.0324 2.456H52.8644V4.424H55.3444V5.512H52.8644V10.472C52.8644 10.9947 52.987 11.384 53.2324 11.64C53.4884 11.8853 53.8137 12.008 54.2084 12.008ZM64.5816 8.696C64.5816 9.41067 64.4856 10.0453 64.2936 10.6C64.1123 11.144 63.8456 11.608 63.4936 11.992C63.1523 12.376 62.731 12.6693 62.2296 12.872C61.739 13.064 61.1896 13.16 60.5816 13.16C60.0163 13.16 59.4936 13.064 59.0136 12.872C58.5336 12.6693 58.1176 12.376 57.7656 11.992C57.4136 11.608 57.1363 11.144 56.9336 10.6C56.7416 10.0453 56.6456 9.41067 56.6456 8.696C56.6456 7.74667 56.8056 6.94667 57.1256 6.296C57.4456 5.63467 57.9043 5.13333 58.5016 4.792C59.099 4.44 59.8083 4.264 60.6296 4.264C61.4083 4.264 62.091 4.44 62.6776 4.792C63.275 5.13333 63.739 5.63467 64.0696 6.296C64.411 6.94667 64.5816 7.74667 64.5816 8.696ZM58.1016 8.696C58.1016 9.368 58.187 9.95467 58.3576 10.456C58.539 10.9467 58.8163 11.3253 59.1896 11.592C59.563 11.8587 60.0376 11.992 60.6136 11.992C61.1896 11.992 61.6643 11.8587 62.0376 11.592C62.411 11.3253 62.683 10.9467 62.8536 10.456C63.035 9.95467 63.1256 9.368 63.1256 8.696C63.1256 8.01333 63.035 7.432 62.8536 6.952C62.6723 6.472 62.395 6.104 62.0216 5.848C61.659 5.58133 61.1843 5.448 60.5976 5.448C59.723 5.448 59.0883 5.736 58.6936 6.312C58.299 6.888 58.1016 7.68267 58.1016 8.696ZM73.9811 4.424V13H72.8291L72.6211 11.864H72.5571C72.3758 12.1627 72.1411 12.408 71.8531 12.6C71.5651 12.792 71.2505 12.9307 70.9091 13.016C70.5678 13.112 70.2105 13.16 69.8371 13.16C69.1545 13.16 68.5785 13.0533 68.1091 12.84C67.6505 12.616 67.3038 12.2747 67.0691 11.816C66.8345 11.3573 66.7171 10.7653 66.7171 10.04V4.424H68.1411V9.944C68.1411 10.6267 68.2958 11.1387 68.6051 11.48C68.9145 11.8213 69.3945 11.992 70.0451 11.992C70.6851 11.992 71.1865 11.8747 71.5491 11.64C71.9225 11.3947 72.1838 11.0427 72.3331 10.584C72.4931 10.1147 72.5731 9.54933 72.5731 8.888V4.424H73.9811ZM80.7038 4.264C80.8638 4.264 81.0344 4.27467 81.2158 4.296C81.4078 4.30667 81.5731 4.328 81.7118 4.36L81.5358 5.656C81.3971 5.624 81.2424 5.59733 81.0718 5.576C80.9118 5.55467 80.7571 5.544 80.6078 5.544C80.2771 5.544 79.9624 5.61333 79.6638 5.752C79.3651 5.89067 79.0984 6.088 78.8638 6.344C78.6291 6.58933 78.4424 6.888 78.3038 7.24C78.1758 7.592 78.1118 7.98667 78.1118 8.424V13H76.7038V4.424H77.8558L78.0158 5.992H78.0798C78.2611 5.672 78.4798 5.384 78.7358 5.128C78.9918 4.86133 79.2851 4.65333 79.6158 4.504C79.9464 4.344 80.3091 4.264 80.7038 4.264Z" fill="#142849"/>
<path d="M3.16667 7.91667L2.60696 8.47637L2.04725 7.91667L2.60696 7.35696L3.16667 7.91667ZM16.625 14.25C16.625 14.46 16.5416 14.6613 16.3931 14.8098C16.2447 14.9583 16.0433 15.0417 15.8333 15.0417C15.6234 15.0417 15.422 14.9583 15.2735 14.8098C15.1251 14.6613 15.0417 14.46 15.0417 14.25H16.625ZM6.56529 12.4347L2.60696 8.47637L3.72638 7.35696L7.68471 11.3153L6.56529 12.4347ZM2.60696 7.35696L6.56529 3.39862L7.68471 4.51804L3.72638 8.47637L2.60696 7.35696ZM3.16667 7.125H11.0833V8.70833H3.16667V7.125ZM16.625 12.6667V14.25H15.0417V12.6667H16.625ZM11.0833 7.125C12.5531 7.125 13.9626 7.70885 15.0019 8.74812C16.0411 9.78738 16.625 11.1969 16.625 12.6667H15.0417C15.0417 11.6169 14.6246 10.61 13.8823 9.8677C13.14 9.12537 12.1331 8.70833 11.0833 8.70833V7.125Z" fill="#142849"/>
</svg>
