<svg width="1410" height="229" viewBox="0 0 1410 229" fill="none" xmlns="http://www.w3.org/2000/svg">
<path d="M47.9834 3.46289V229H0.454102V3.46289H47.9834ZM84.7656 229V200.846L197.383 42.8184H84.4629V3.46289H257.173V31.7686L144.556 189.645H257.476V229H84.7656ZM341.636 3.46289V229H294.106V3.46289H341.636ZM503.296 229L438.813 3.46289H490.884L528.271 160.128H530.239L571.26 3.46289H615.913L656.782 160.582H658.901L696.138 3.46289H748.359L683.726 229H637.256L594.419 81.5684H592.603L549.917 229H503.296ZM875.205 232.027C855.225 232.027 837.262 227.486 821.318 218.404C805.374 209.322 792.76 196.153 783.477 178.897C774.193 161.642 769.551 140.803 769.551 116.383C769.551 91.7604 774.193 70.8213 783.477 53.5654C792.76 36.3096 805.374 23.1406 821.318 14.0586C837.262 4.97656 855.225 0.435547 875.205 0.435547C895.186 0.435547 913.097 4.97656 928.94 14.0586C944.884 23.1406 957.498 36.3096 966.782 53.5654C976.066 70.8213 980.708 91.7604 980.708 116.383C980.708 141.005 976.066 161.944 966.782 179.2C957.498 196.355 944.884 209.474 928.94 218.556C913.097 227.537 895.186 232.027 875.205 232.027ZM817.837 116.383C817.837 140.198 823.034 158.412 833.428 171.026C843.923 183.64 857.848 189.947 875.205 189.947C892.461 189.947 906.286 183.64 916.68 171.026C927.174 158.412 932.422 140.198 932.422 116.383C932.422 92.4668 927.174 74.2018 916.68 61.5879C906.286 48.873 892.461 42.5156 875.205 42.5156C857.848 42.5156 843.923 48.873 833.428 61.5879C823.034 74.2018 817.837 92.4668 817.837 116.383ZM1016.13 229V3.46289H1104.83C1130.46 3.46289 1150.34 10.1735 1164.47 23.5947C1178.7 37.016 1185.81 54.8773 1185.81 77.1787C1185.81 92.6182 1182.38 105.838 1175.52 116.837C1168.66 127.735 1158.82 135.909 1146 141.358L1193.83 229H1141.16L1098.47 149.078H1063.66V229H1016.13ZM1063.66 110.782H1095.9C1123.14 110.782 1136.77 99.5811 1136.77 77.1787C1136.77 65.9775 1133.39 57.4001 1126.63 51.4463C1119.86 45.4925 1109.57 42.5156 1095.75 42.5156H1063.66V110.782ZM1219.87 229V3.46289H1267.4V102.911H1270.27L1351.56 3.46289H1408.62L1325.07 104.425L1409.68 229H1352.47L1290.86 136.363L1267.4 164.972V229H1219.87Z" fill="#142849"/>
</svg>
