<svg width="1440" height="253" viewBox="0 0 1440 253" fill="none" xmlns="http://www.w3.org/2000/svg">
<path d="M0 0H1440V289H0V0Z" fill="#142849"/>
<path d="M66.9834 27.4629V253H19.4541V27.4629H66.9834ZM103.766 253V224.846L216.383 66.8184H103.463V27.4629H276.173V55.7686L163.556 213.645H276.476V253H103.766ZM360.636 27.4629V253H313.106V27.4629H360.636ZM522.296 253L457.813 27.4629H509.884L547.271 184.128H549.239L590.26 27.4629H634.913L675.782 184.582H677.901L715.138 27.4629H767.359L702.726 253H656.256L613.419 105.568H611.603L568.917 253H522.296ZM894.205 256.027C874.225 256.027 856.262 251.486 840.318 242.404C824.374 233.322 811.76 220.153 802.477 202.897C793.193 185.642 788.551 164.803 788.551 140.383C788.551 115.76 793.193 94.8213 802.477 77.5654C811.76 60.3096 824.374 47.1406 840.318 38.0586C856.262 28.9766 874.225 24.4355 894.205 24.4355C914.186 24.4355 932.097 28.9766 947.94 38.0586C963.884 47.1406 976.498 60.3096 985.782 77.5654C995.066 94.8213 999.708 115.76 999.708 140.383C999.708 165.005 995.066 185.944 985.782 203.2C976.498 220.355 963.884 233.474 947.94 242.556C932.097 251.537 914.186 256.027 894.205 256.027ZM836.837 140.383C836.837 164.198 842.034 182.412 852.428 195.026C862.923 207.64 876.848 213.947 894.205 213.947C911.461 213.947 925.286 207.64 935.68 195.026C946.174 182.412 951.422 164.198 951.422 140.383C951.422 116.467 946.174 98.2018 935.68 85.5879C925.286 72.873 911.461 66.5156 894.205 66.5156C876.848 66.5156 862.923 72.873 852.428 85.5879C842.034 98.2018 836.837 116.467 836.837 140.383ZM1035.13 253V27.4629H1123.83C1149.46 27.4629 1169.34 34.1735 1183.47 47.5947C1197.7 61.016 1204.81 78.8773 1204.81 101.179C1204.81 116.618 1201.38 129.838 1194.52 140.837C1187.66 151.735 1177.82 159.909 1165 165.358L1212.83 253H1160.16L1117.47 173.078H1082.66V253H1035.13ZM1082.66 134.782H1114.9C1142.14 134.782 1155.77 123.581 1155.77 101.179C1155.77 89.9775 1152.39 81.4001 1145.63 75.4463C1138.86 69.4925 1128.57 66.5156 1114.75 66.5156H1082.66V134.782ZM1238.87 253V27.4629H1286.4V126.911H1289.27L1370.56 27.4629H1427.62L1344.07 128.425L1428.68 253H1371.47L1309.86 160.363L1286.4 188.972V253H1238.87Z" fill="#72828A"/>
</svg>
