<svg width="28" height="28" viewBox="0 0 28 28" fill="none" xmlns="http://www.w3.org/2000/svg">
<path d="M19.19 14.3727C19.19 15.7259 18.6524 17.0237 17.6956 17.9806C16.7387 18.9375 15.4409 19.4751 14.0876 19.4751C12.7344 19.4751 11.4366 18.9375 10.4797 17.9806C9.52279 17.0237 8.98521 15.7259 8.98521 14.3727C8.98521 13.0195 9.52279 11.7216 10.4797 10.7648C11.4366 9.80787 12.7344 9.27029 14.0876 9.27029C15.4409 9.27029 16.7387 9.80787 17.6956 10.7648C18.6524 11.7216 19.19 13.0195 19.19 14.3727ZM19.19 14.3727C19.19 16.2515 20.3318 17.7743 21.7412 17.7743C23.1506 17.7743 24.2924 16.2515 24.2924 14.3727C24.2924 12.0118 23.4737 9.72387 21.976 7.89886C20.4782 6.07385 18.394 4.82463 16.0784 4.36405C13.7628 3.90347 11.3592 4.26004 9.27703 5.37299C7.19489 6.48594 5.56305 8.28642 4.65958 10.4676C3.75611 12.6489 3.63689 15.0759 4.32225 17.3351C5.00761 19.5944 6.45514 21.5461 8.41819 22.8578C10.3812 24.1694 12.7384 24.7599 15.0879 24.5284C17.4375 24.297 19.6341 23.2581 21.3035 21.5886M19.19 14.3727V10.1207" stroke="black" stroke-width="1.7008" stroke-linecap="round" stroke-linejoin="round"/>
</svg>
