<svg width="28" height="28" viewBox="0 0 28 28" fill="none" xmlns="http://www.w3.org/2000/svg">
<path d="M14.0876 9.38831V7.68751M14.0876 9.38831C12.5512 9.38831 11.0296 9.45181 9.52493 9.57653C8.24253 9.68312 7.28441 10.775 7.28441 12.062V14.9114C9.51359 14.6336 11.7836 14.4907 14.0876 14.4907C16.3619 14.49 18.634 14.6305 20.8908 14.9114M14.0876 9.38831C15.624 9.38831 17.1456 9.45181 18.6503 9.57653C19.9327 9.68312 20.8908 10.775 20.8908 12.062V14.9114M20.8908 14.9114C21.333 14.9669 21.7718 15.027 22.2095 15.0928C23.4227 15.2742 24.2924 16.3332 24.2924 17.559V23.4199C24.2924 24.124 23.7209 24.6955 23.0168 24.6955H5.15841C4.8201 24.6955 4.49565 24.5611 4.25643 24.3219C4.01721 24.0827 3.88281 23.7582 3.88281 23.4199V17.5578C3.88281 16.3332 4.75362 15.2742 5.96572 15.0928C6.40452 15.0265 6.84412 14.9657 7.28441 14.9102M17.4892 9.38831V7.68751M10.686 9.38831V7.68751M24.2924 18.7427L22.5916 19.5931C22.0635 19.8572 21.4812 19.9946 20.8908 19.9946C20.3004 19.9946 19.7181 19.8572 19.19 19.5931C18.6619 19.3291 18.0796 19.1916 17.4892 19.1916C16.8988 19.1916 16.3165 19.3291 15.7884 19.5931C15.2603 19.8572 14.678 19.9946 14.0876 19.9946C13.4972 19.9946 12.9149 19.8572 12.3868 19.5931C11.8587 19.3291 11.2764 19.1916 10.686 19.1916C10.0956 19.1916 9.51329 19.3291 8.98521 19.5931C8.45713 19.8572 7.87483 19.9946 7.28441 19.9946C6.694 19.9946 6.11169 19.8572 5.58361 19.5931L3.88281 18.7427M14.3881 3.56024C14.4476 3.61968 14.4882 3.69545 14.5046 3.77794C14.521 3.86044 14.5127 3.94596 14.4805 4.02368C14.4483 4.10141 14.3938 4.16785 14.3239 4.21459C14.254 4.26134 14.1717 4.28629 14.0876 4.28629C14.0035 4.28629 13.9213 4.26134 13.8513 4.21459C13.7814 4.16785 13.7269 4.10141 13.6947 4.02368C13.6626 3.94596 13.6542 3.86044 13.6706 3.77794C13.6871 3.69545 13.7276 3.61968 13.7871 3.56024L14.0876 3.25977L14.3881 3.56024ZM10.9865 3.56024C11.046 3.61968 11.0866 3.69545 11.103 3.77794C11.1195 3.86044 11.1111 3.94596 11.0789 4.02368C11.0467 4.10141 10.9922 4.16785 10.9223 4.21459C10.8524 4.26134 10.7701 4.28629 10.686 4.28629C10.6019 4.28629 10.5197 4.26134 10.4497 4.21459C10.3798 4.16785 10.3253 4.10141 10.2931 4.02368C10.261 3.94596 10.2526 3.86044 10.269 3.77794C10.2855 3.69545 10.326 3.61968 10.3855 3.56024L10.686 3.25977L10.9865 3.56024ZM17.7897 3.56024C17.8492 3.61968 17.8897 3.69545 17.9062 3.77794C17.9226 3.86044 17.9143 3.94596 17.8821 4.02368C17.8499 4.10141 17.7954 4.16785 17.7255 4.21459C17.6556 4.26134 17.5733 4.28629 17.4892 4.28629C17.4051 4.28629 17.3229 4.26134 17.2529 4.21459C17.183 4.16785 17.1285 4.10141 17.0963 4.02368C17.0642 3.94596 17.0558 3.86044 17.0722 3.77794C17.0887 3.69545 17.1292 3.61968 17.1887 3.56024L17.4892 3.25977L17.7897 3.56024Z" stroke="black" stroke-width="1.7008" stroke-linecap="round" stroke-linejoin="round"/>
</svg>
