<svg width="28" height="28" viewBox="0 0 28 28" fill="none" xmlns="http://www.w3.org/2000/svg">
<path d="M25.1426 8.11956V20.0252C25.1426 20.7018 24.8738 21.3507 24.3954 21.8291C23.9169 22.3076 23.268 22.5764 22.5914 22.5764H5.58343C4.90681 22.5764 4.2579 22.3076 3.77946 21.8291C3.30101 21.3507 3.03223 20.7018 3.03223 20.0252V8.11956M25.1426 8.11956C25.1426 7.44294 24.8738 6.79403 24.3954 6.31559C23.9169 5.83715 23.268 5.56836 22.5914 5.56836H5.58343C4.90681 5.56836 4.2579 5.83715 3.77946 6.31559C3.30101 6.79403 3.03223 7.44294 3.03223 8.11956M25.1426 8.11956V8.39509C25.1427 8.83066 25.0312 9.25899 24.8188 9.63927C24.6064 10.0196 24.3002 10.3391 23.9294 10.5676L15.4254 15.8004C15.0231 16.0482 14.5599 16.1794 14.0874 16.1794C13.6149 16.1794 13.1517 16.0482 12.7495 15.8004L4.24546 10.5687C3.8746 10.3403 3.5684 10.0207 3.35602 9.64041C3.14365 9.26012 3.03218 8.83179 3.03223 8.39622V8.11956" stroke="black" stroke-width="1.7008" stroke-linecap="round" stroke-linejoin="round"/>
</svg>
