<svg width="47" height="47" viewBox="0 0 47 47" fill="none" xmlns="http://www.w3.org/2000/svg">
<path d="M23.437 29.1034C26.568 29.1034 29.1063 26.5651 29.1063 23.434C29.1063 20.3029 26.568 17.7647 23.437 17.7647C20.3059 17.7647 17.7676 20.3029 17.7676 23.434C17.7676 26.5651 20.3059 29.1034 23.437 29.1034Z" stroke="#1E1E1E" stroke-width="4.53546" stroke-linecap="round" stroke-linejoin="round"/>
<path d="M37.4213 29.1034C37.1698 29.6733 37.0947 30.3056 37.2059 30.9187C37.317 31.5317 37.6093 32.0974 38.0449 32.5428L38.1583 32.6561C38.5097 33.0072 38.7885 33.424 38.9787 33.8828C39.1689 34.3417 39.2668 34.8335 39.2668 35.3302C39.2668 35.8269 39.1689 36.3187 38.9787 36.7775C38.7885 37.2364 38.5097 37.6532 38.1583 38.0042C37.8073 38.3556 37.3905 38.6344 36.9316 38.8246C36.4728 39.0148 35.981 39.1127 35.4843 39.1127C34.9876 39.1127 34.4958 39.0148 34.0369 38.8246C33.5781 38.6344 33.1613 38.3556 32.8103 38.0042L32.6969 37.8908C32.2515 37.4552 31.6858 37.1629 31.0728 37.0518C30.4597 36.9406 29.8275 37.0156 29.2575 37.2672C28.6985 37.5068 28.2218 37.9045 27.8861 38.4115C27.5503 38.9185 27.3701 39.5127 27.3677 40.1208V40.442C27.3677 41.4444 26.9695 42.4058 26.2607 43.1146C25.5519 43.8234 24.5905 44.2216 23.5881 44.2216C22.5857 44.2216 21.6244 43.8234 20.9156 43.1146C20.2068 42.4058 19.8086 41.4444 19.8086 40.442V40.2719C19.794 39.6464 19.5915 39.0398 19.2275 38.5309C18.8635 38.022 18.3548 37.6344 17.7676 37.4184C17.1976 37.1668 16.5654 37.0918 15.9523 37.2029C15.3393 37.3141 14.7736 37.6063 14.3282 38.042L14.2148 38.1554C13.8638 38.5068 13.447 38.7856 12.9882 38.9758C12.5293 39.166 12.0375 39.2639 11.5408 39.2639C11.0441 39.2639 10.5523 39.166 10.0935 38.9758C9.63464 38.7856 9.2178 38.5068 8.86678 38.1554C8.51537 37.8044 8.23659 37.3875 8.04639 36.9287C7.85619 36.4699 7.75829 35.9781 7.75829 35.4814C7.75829 34.9847 7.85619 34.4928 8.04639 34.034C8.23659 33.5752 8.51537 33.1583 8.86678 32.8073L8.98017 32.6939C9.41583 32.2486 9.70808 31.6829 9.81924 31.0698C9.93039 30.4568 9.85535 29.8245 9.60379 29.2545C9.36424 28.6956 8.96648 28.2189 8.45947 27.8831C7.95246 27.5474 7.35833 27.3672 6.75023 27.3648H6.42897C5.42657 27.3648 4.46522 26.9666 3.75642 26.2578C3.04762 25.549 2.64941 24.5876 2.64941 23.5852C2.64941 22.5828 3.04762 21.6215 3.75642 20.9127C4.46522 20.2039 5.42657 19.8057 6.42897 19.8057H6.59905C7.22455 19.791 7.83119 19.5886 8.3401 19.2246C8.849 18.8606 9.23664 18.3519 9.45261 17.7647C9.70417 17.1947 9.77921 16.5624 9.66805 15.9494C9.5569 15.3364 9.26465 14.7707 8.82898 14.3253L8.7156 14.2119C8.36419 13.8609 8.08541 13.4441 7.89521 12.9852C7.70501 12.5264 7.60711 12.0346 7.60711 11.5379C7.60711 11.0412 7.70501 10.5494 7.89521 10.0905C8.08541 9.63171 8.36419 9.21487 8.7156 8.86385C9.06662 8.51244 9.48346 8.23366 9.94229 8.04346C10.4011 7.85326 10.8929 7.75536 11.3896 7.75536C11.8863 7.75536 12.3781 7.85326 12.837 8.04346C13.2958 8.23366 13.7126 8.51244 14.0637 8.86385L14.1771 8.97724C14.6224 9.4129 15.1881 9.70515 15.8011 9.81631C16.4142 9.92746 17.0465 9.85242 17.6164 9.60086H17.7676C18.3266 9.36131 18.8033 8.96355 19.139 8.45654C19.4748 7.94953 19.655 7.35541 19.6574 6.7473V6.42604C19.6574 5.42364 20.0556 4.46229 20.7644 3.75349C21.4732 3.04469 22.4346 2.64648 23.437 2.64648C24.4394 2.64648 25.4007 3.04469 26.1095 3.75349C26.8183 4.46229 27.2165 5.42364 27.2165 6.42604V6.59612C27.2189 7.20422 27.3991 7.79835 27.7349 8.30536C28.0707 8.81236 28.5474 9.21013 29.1063 9.44968C29.6763 9.70124 30.3086 9.77628 30.9216 9.66512C31.5346 9.55397 32.1003 9.26172 32.5457 8.82605L32.6591 8.71267C33.0101 8.36126 33.4269 8.08248 33.8858 7.89228C34.3446 7.70208 34.8364 7.60418 35.3331 7.60418C35.8298 7.60418 36.3216 7.70208 36.7804 7.89228C37.2393 8.08248 37.6561 8.36126 38.0071 8.71267C38.3585 9.06369 38.6373 9.48053 38.8275 9.93936C39.0177 10.3982 39.1156 10.89 39.1156 11.3867C39.1156 11.8834 39.0177 12.3752 38.8275 12.834C38.6373 13.2929 38.3585 13.7097 38.0071 14.0607L37.8938 14.1741C37.4581 14.6195 37.1658 15.1852 37.0547 15.7982C36.9435 16.4113 37.0186 17.0435 37.2701 17.6135V17.7647C37.5097 18.3236 37.9074 18.8003 38.4145 19.1361C38.9215 19.4719 39.5156 19.6521 40.1237 19.6545H40.445C41.4474 19.6545 42.4087 20.0527 43.1175 20.7615C43.8263 21.4703 44.2245 22.4316 44.2245 23.434C44.2245 24.4364 43.8263 25.3978 43.1175 26.1066C42.4087 26.8154 41.4474 27.2136 40.445 27.2136H40.2749C39.6668 27.216 39.0726 27.3962 38.5656 27.732C38.0586 28.0677 37.6609 28.5444 37.4213 29.1034Z" stroke="#1E1E1E" stroke-width="4.53546" stroke-linecap="round" stroke-linejoin="round"/>
</svg>
