<svg width="24" height="26" viewBox="0 0 24 26" fill="none" xmlns="http://www.w3.org/2000/svg">
<path d="M1 6.55807C1 16.4087 8.61505 24.3949 18.008 24.3949H20.5592C21.2358 24.3949 21.8847 24.113 22.3632 23.6112C22.8416 23.1095 23.1104 22.4289 23.1104 21.7193V20.0879C23.1104 19.4743 22.7124 18.9392 22.1443 18.7905L17.1292 17.4754C16.6303 17.3446 16.1065 17.5408 15.7992 17.9712L14.6994 19.5088C14.3796 19.9559 13.8274 20.1533 13.3274 19.9606C11.4711 19.2449 9.78537 18.1146 8.38689 16.648C6.98841 15.1814 5.91063 13.4135 5.22819 11.4668C5.0445 10.9424 5.23272 10.3633 5.65906 10.0279L7.12514 8.87447C7.53674 8.55222 7.72269 8.00166 7.59797 7.47964L6.34391 2.22016C6.2749 1.93084 6.11569 1.674 5.89156 1.49044C5.66743 1.30688 5.39124 1.20713 5.10686 1.20703H3.5512C2.87458 1.20703 2.22567 1.48892 1.74723 1.99067C1.26879 2.49243 1 3.17296 1 3.88255V6.55807Z" stroke="black" stroke-width="1.7008" stroke-linecap="round" stroke-linejoin="round"/>
</svg>
