<svg width="1116" height="150" viewBox="0 0 1116 150" fill="none" xmlns="http://www.w3.org/2000/svg">
<path d="M50.8675 23.5508H39.2021C38.989 22.0415 38.554 20.701 37.897 19.5291C37.2401 18.3395 36.3967 17.3274 35.3668 16.4929C34.337 15.6584 33.1474 15.0192 31.7979 14.5753C30.4663 14.1314 29.0192 13.9094 27.4567 13.9094C24.6335 13.9094 22.1744 14.6108 20.0792 16.0135C17.984 17.3984 16.3594 19.4226 15.2053 22.0859C14.0511 24.7315 13.4741 27.9453 13.4741 31.7273C13.4741 35.6158 14.0511 38.8828 15.2053 41.5284C16.3771 44.174 18.0107 46.1715 20.1058 47.521C22.201 48.8704 24.6246 49.5451 27.3768 49.5451C28.9215 49.5451 30.3509 49.3409 31.6648 48.9325C32.9965 48.5241 34.1772 47.9293 35.207 47.1481C36.2369 46.3491 37.0891 45.3814 37.7639 44.245C38.4563 43.1087 38.9357 41.8125 39.2021 40.3565L50.8675 40.4098C50.5657 42.9134 49.8111 45.3281 48.6037 47.6541C47.4141 49.9624 45.8072 52.0309 43.783 53.8597C41.7766 55.6708 39.3796 57.109 36.592 58.1744C33.8221 59.2219 30.6882 59.7457 27.1903 59.7457C22.3253 59.7457 17.9751 58.6449 14.1399 56.4432C10.3224 54.2415 7.30398 51.0543 5.08452 46.8817C2.88281 42.7092 1.78196 37.6577 1.78196 31.7273C1.78196 25.7791 2.90057 20.7188 5.13778 16.5462C7.375 12.3736 10.4112 9.19531 14.2464 7.01136C18.0817 4.80966 22.3963 3.7088 27.1903 3.7088C30.3509 3.7088 33.2805 4.1527 35.9794 5.04048C38.696 5.92827 41.1019 7.22443 43.1971 8.92897C45.2923 10.6158 46.9968 12.6843 48.3107 15.1346C49.6424 17.5849 50.4947 20.3903 50.8675 23.5508ZM77.4078 59.799C73.2708 59.799 69.693 58.9201 66.6745 57.1623C63.6738 55.3867 61.3567 52.9187 59.7232 49.7582C58.0897 46.5799 57.2729 42.8956 57.2729 38.7053C57.2729 34.4794 58.0897 30.7862 59.7232 27.6257C61.3567 24.4474 63.6738 21.9794 66.6745 20.2216C69.693 18.446 73.2708 17.5582 77.4078 17.5582C81.5449 17.5582 85.1138 18.446 88.1145 20.2216C91.133 21.9794 93.459 24.4474 95.0925 27.6257C96.726 30.7862 97.5428 34.4794 97.5428 38.7053C97.5428 42.8956 96.726 46.5799 95.0925 49.7582C93.459 52.9187 91.133 55.3867 88.1145 57.1623C85.1138 58.9201 81.5449 59.799 77.4078 59.799ZM77.4611 51.0099C79.3432 51.0099 80.9146 50.4773 82.1752 49.4119C83.4359 48.3288 84.3858 46.8551 85.025 44.9908C85.682 43.1264 86.0105 41.0046 86.0105 38.6254C86.0105 36.2461 85.682 34.1243 85.025 32.2599C84.3858 30.3956 83.4359 28.9219 82.1752 27.8388C80.9146 26.7557 79.3432 26.2141 77.4611 26.2141C75.5613 26.2141 73.9632 26.7557 72.6671 27.8388C71.3887 28.9219 70.421 30.3956 69.764 32.2599C69.1248 34.1243 68.8052 36.2461 68.8052 38.6254C68.8052 41.0046 69.1248 43.1264 69.764 44.9908C70.421 46.8551 71.3887 48.3288 72.6671 49.4119C73.9632 50.4773 75.5613 51.0099 77.4611 51.0099ZM116.266 35.3494V59H104.92V18.0909H115.733V25.3086H116.213C117.118 22.9293 118.637 21.0472 120.767 19.6623C122.898 18.2596 125.481 17.5582 128.518 17.5582C131.358 17.5582 133.835 18.1797 135.948 19.4226C138.061 20.6655 139.704 22.441 140.876 24.7493C142.047 27.0398 142.633 29.7741 142.633 32.9524V59H131.287V34.9766C131.305 32.473 130.666 30.5199 129.37 29.1172C128.074 27.6967 126.289 26.9865 124.017 26.9865C122.49 26.9865 121.14 27.315 119.968 27.9719C118.814 28.6289 117.909 29.5877 117.252 30.8484C116.612 32.0913 116.284 33.5916 116.266 35.3494ZM162.921 35.3494V59H151.576V18.0909H162.389V25.3086H162.868C163.774 22.9293 165.292 21.0472 167.422 19.6623C169.553 18.2596 172.137 17.5582 175.173 17.5582C178.014 17.5582 180.491 18.1797 182.604 19.4226C184.717 20.6655 186.359 22.441 187.531 24.7493C188.703 27.0398 189.289 29.7741 189.289 32.9524V59H177.943V34.9766C177.96 32.473 177.321 30.5199 176.025 29.1172C174.729 27.6967 172.945 26.9865 170.672 26.9865C169.145 26.9865 167.795 27.315 166.623 27.9719C165.469 28.6289 164.564 29.5877 163.907 30.8484C163.268 32.0913 162.939 33.5916 162.921 35.3494ZM216.874 59.799C212.666 59.799 209.044 58.9467 206.008 57.2422C202.989 55.5199 200.663 53.0874 199.03 49.9446C197.396 46.7841 196.58 43.0465 196.58 38.7319C196.58 34.5238 197.396 30.8306 199.03 27.6523C200.663 24.4741 202.963 21.9972 205.928 20.2216C208.911 18.446 212.409 17.5582 216.422 17.5582C219.12 17.5582 221.633 17.9933 223.959 18.8633C226.303 19.7156 228.344 21.0028 230.085 22.7251C231.842 24.4474 233.21 26.6136 234.186 29.2237C235.163 31.8161 235.651 34.8523 235.651 38.3324V41.4485H201.107V34.4173H224.971C224.971 32.7837 224.616 31.3366 223.906 30.076C223.195 28.8153 222.21 27.8299 220.949 27.1197C219.706 26.3917 218.259 26.0277 216.608 26.0277C214.886 26.0277 213.359 26.4272 212.027 27.2262C210.713 28.0075 209.683 29.0639 208.938 30.3956C208.192 31.7095 207.81 33.1744 207.792 34.7901V41.4751C207.792 43.4993 208.165 45.2482 208.911 46.7219C209.674 48.1957 210.749 49.332 212.134 50.131C213.518 50.93 215.161 51.3295 217.061 51.3295C218.321 51.3295 219.475 51.152 220.523 50.7969C221.571 50.4418 222.467 49.9091 223.213 49.1989C223.959 48.4886 224.527 47.6186 224.918 46.5888L235.411 47.2812C234.879 49.8026 233.787 52.0043 232.135 53.8864C230.502 55.7507 228.389 57.2067 225.797 58.2543C223.222 59.2841 220.248 59.799 216.874 59.799ZM261.539 59.799C257.348 59.799 253.744 58.9112 250.725 57.1357C247.725 55.3423 245.417 52.8565 243.801 49.6783C242.203 46.5 241.404 42.8423 241.404 38.7053C241.404 34.5149 242.212 30.8395 243.827 27.679C245.461 24.5007 247.778 22.0238 250.779 20.2482C253.779 18.4549 257.348 17.5582 261.485 17.5582C265.054 17.5582 268.179 18.2063 270.86 19.5025C273.542 20.7986 275.663 22.6186 277.226 24.9624C278.788 27.3061 279.65 30.0582 279.809 33.2188H269.103C268.801 31.1768 268.002 29.5344 266.706 28.2915C265.427 27.0309 263.749 26.4006 261.672 26.4006C259.914 26.4006 258.378 26.88 257.064 27.8388C255.768 28.7798 254.756 30.1559 254.028 31.967C253.3 33.7781 252.936 35.9709 252.936 38.5455C252.936 41.1555 253.291 43.375 254.001 45.2038C254.729 47.0327 255.75 48.4265 257.064 49.3853C258.378 50.3441 259.914 50.8235 261.672 50.8235C262.968 50.8235 264.131 50.5572 265.161 50.0245C266.208 49.4918 267.07 48.7195 267.744 47.7074C268.437 46.6776 268.89 45.4435 269.103 44.0053H279.809C279.632 47.1303 278.779 49.8825 277.252 52.2617C275.743 54.6232 273.657 56.4698 270.994 57.8015C268.33 59.1332 265.179 59.799 261.539 59.799ZM308.833 18.0909V26.6136H284.197V18.0909H308.833ZM289.79 8.28977H301.136V46.429C301.136 47.4766 301.296 48.2933 301.616 48.8793C301.935 49.4474 302.379 49.8469 302.947 50.0778C303.533 50.3086 304.208 50.424 304.971 50.424C305.504 50.424 306.037 50.3796 306.569 50.2908C307.102 50.1843 307.51 50.1044 307.794 50.0511L309.579 58.494C309.011 58.6715 308.212 58.8757 307.182 59.1065C306.152 59.3551 304.9 59.506 303.427 59.5593C300.692 59.6658 298.295 59.3018 296.236 58.4673C294.194 57.6328 292.604 56.3366 291.468 54.5788C290.332 52.821 289.772 50.6016 289.79 47.9205V8.28977ZM334.428 59.799C330.22 59.799 326.598 58.9467 323.562 57.2422C320.543 55.5199 318.217 53.0874 316.584 49.9446C314.95 46.7841 314.133 43.0465 314.133 38.7319C314.133 34.5238 314.95 30.8306 316.584 27.6523C318.217 24.4741 320.516 21.9972 323.482 20.2216C326.465 18.446 329.962 17.5582 333.975 17.5582C336.674 17.5582 339.187 17.9933 341.513 18.8633C343.856 19.7156 345.898 21.0028 347.638 22.7251C349.396 24.4474 350.763 26.6136 351.74 29.2237C352.716 31.8161 353.205 34.8523 353.205 38.3324V41.4485H318.661V34.4173H342.525C342.525 32.7837 342.169 31.3366 341.459 30.076C340.749 28.8153 339.764 27.8299 338.503 27.1197C337.26 26.3917 335.813 26.0277 334.162 26.0277C332.439 26.0277 330.912 26.4272 329.581 27.2262C328.267 28.0075 327.237 29.0639 326.491 30.3956C325.745 31.7095 325.364 33.1744 325.346 34.7901V41.4751C325.346 43.4993 325.719 45.2482 326.465 46.7219C327.228 48.1957 328.302 49.332 329.687 50.131C331.072 50.93 332.715 51.3295 334.614 51.3295C335.875 51.3295 337.029 51.152 338.077 50.7969C339.124 50.4418 340.021 49.9091 340.767 49.1989C341.513 48.4886 342.081 47.6186 342.471 46.5888L352.965 47.2812C352.432 49.8026 351.34 52.0043 349.689 53.8864C348.055 55.7507 345.943 57.2067 343.35 58.2543C340.776 59.2841 337.802 59.799 334.428 59.799ZM360.396 59V52.2351L380.424 27.4393V27.1463H361.088V18.0909H394.087V25.4684L375.284 49.6516V49.9446H394.78V59H360.396ZM428.944 32.1001V41.1023H404.068V32.1001H428.944ZM476.751 18.0909L462.449 59H449.665L435.362 18.0909H447.347L455.844 47.3612H456.27L464.739 18.0909H476.751ZM499.722 59.799C495.585 59.799 492.007 58.9201 488.989 57.1623C485.988 55.3867 483.671 52.9187 482.038 49.7582C480.404 46.5799 479.587 42.8956 479.587 38.7053C479.587 34.4794 480.404 30.7862 482.038 27.6257C483.671 24.4474 485.988 21.9794 488.989 20.2216C492.007 18.446 495.585 17.5582 499.722 17.5582C503.859 17.5582 507.428 18.446 510.429 20.2216C513.447 21.9794 515.773 24.4474 517.407 27.6257C519.04 30.7862 519.857 34.4794 519.857 38.7053C519.857 42.8956 519.04 46.5799 517.407 49.7582C515.773 52.9187 513.447 55.3867 510.429 57.1623C507.428 58.9201 503.859 59.799 499.722 59.799ZM499.776 51.0099C501.658 51.0099 503.229 50.4773 504.49 49.4119C505.75 48.3288 506.7 46.8551 507.339 44.9908C507.996 43.1264 508.325 41.0046 508.325 38.6254C508.325 36.2461 507.996 34.1243 507.339 32.2599C506.7 30.3956 505.75 28.9219 504.49 27.8388C503.229 26.7557 501.658 26.2141 499.776 26.2141C497.876 26.2141 496.278 26.7557 494.982 27.8388C493.703 28.9219 492.735 30.3956 492.078 32.2599C491.439 34.1243 491.12 36.2461 491.12 38.6254C491.12 41.0046 491.439 43.1264 492.078 44.9908C492.735 46.8551 493.703 48.3288 494.982 49.4119C496.278 50.4773 497.876 51.0099 499.776 51.0099ZM553.469 41.5817V18.0909H564.815V59H553.922V51.5692H553.495C552.572 53.9663 551.036 55.8928 548.888 57.3487C546.757 58.8047 544.156 59.5327 541.084 59.5327C538.35 59.5327 535.944 58.9112 533.866 57.6683C531.789 56.4254 530.164 54.6587 528.993 52.3683C527.838 50.0778 527.252 47.3345 527.235 44.1385V18.0909H538.581V42.1143C538.598 44.5291 539.246 46.4379 540.525 47.8406C541.803 49.2433 543.517 49.9446 545.665 49.9446C547.032 49.9446 548.311 49.6339 549.5 49.0124C550.69 48.3732 551.649 47.4322 552.377 46.1893C553.123 44.9464 553.487 43.4105 553.469 41.5817ZM607.928 29.7564L597.541 30.3956C597.363 29.5078 596.981 28.7088 596.395 27.9986C595.809 27.2706 595.037 26.6935 594.078 26.2674C593.137 25.8235 592.01 25.6016 590.696 25.6016C588.938 25.6016 587.455 25.9744 586.248 26.7202C585.041 27.4482 584.437 28.4247 584.437 29.6499C584.437 30.6264 584.828 31.4521 585.609 32.1268C586.39 32.8015 587.731 33.343 589.63 33.7514L597.035 35.2429C601.012 36.0597 603.977 37.3736 605.93 39.1847C607.883 40.9957 608.86 43.375 608.86 46.3224C608.86 49.0036 608.07 51.3562 606.489 53.3803C604.927 55.4045 602.778 56.9847 600.044 58.1211C597.328 59.2397 594.194 59.799 590.642 59.799C585.227 59.799 580.912 58.6715 577.699 56.4165C574.503 54.1438 572.629 51.0543 572.079 47.1481L583.238 46.5621C583.576 48.2134 584.392 49.4741 585.689 50.3441C586.985 51.1964 588.645 51.6225 590.669 51.6225C592.658 51.6225 594.256 51.2408 595.463 50.4773C596.688 49.696 597.31 48.6928 597.328 47.4677C597.31 46.4379 596.875 45.5945 596.022 44.9375C595.17 44.2628 593.856 43.7479 592.081 43.3928L584.996 41.9812C581.001 41.1822 578.027 39.7972 576.074 37.8263C574.139 35.8555 573.171 33.343 573.171 30.2891C573.171 27.6612 573.881 25.3974 575.302 23.4975C576.74 21.5977 578.755 20.1328 581.347 19.103C583.957 18.0732 587.011 17.5582 590.509 17.5582C595.676 17.5582 599.742 18.6502 602.707 20.8342C605.69 23.0181 607.43 25.9922 607.928 29.7564ZM633.363 74.3409V18.0909H644.549V24.9624H645.055C645.552 23.8615 646.271 22.7429 647.212 21.6065C648.171 20.4524 649.414 19.4936 650.941 18.7301C652.486 17.9489 654.403 17.5582 656.694 17.5582C659.677 17.5582 662.429 18.3395 664.95 19.902C667.471 21.4467 669.487 23.7816 670.996 26.9066C672.505 30.0138 673.26 33.9112 673.26 38.5987C673.26 43.1619 672.523 47.0149 671.049 50.1577C669.593 53.2827 667.604 55.6531 665.083 57.2688C662.58 58.8668 659.774 59.6658 656.667 59.6658C654.465 59.6658 652.592 59.3018 651.047 58.5739C649.52 57.8459 648.269 56.9315 647.292 55.8306C646.315 54.712 645.57 53.5845 645.055 52.4482H644.709V74.3409H633.363ZM644.469 38.5455C644.469 40.978 644.806 43.0998 645.481 44.9109C646.156 46.7219 647.132 48.1335 648.411 49.1456C649.689 50.1399 651.243 50.6371 653.071 50.6371C654.918 50.6371 656.481 50.131 657.759 49.119C659.037 48.0891 660.005 46.6687 660.662 44.8576C661.337 43.0288 661.674 40.9247 661.674 38.5455C661.674 36.1839 661.346 34.1065 660.689 32.3132C660.032 30.5199 659.064 29.1172 657.786 28.1051C656.507 27.093 654.936 26.587 653.071 26.587C651.225 26.587 649.662 27.0753 648.384 28.0518C647.123 29.0284 646.156 30.4134 645.481 32.2067C644.806 34 644.469 36.1129 644.469 38.5455ZM699.307 59.799C695.17 59.799 691.592 58.9201 688.574 57.1623C685.573 55.3867 683.256 52.9187 681.623 49.7582C679.989 46.5799 679.172 42.8956 679.172 38.7053C679.172 34.4794 679.989 30.7862 681.623 27.6257C683.256 24.4474 685.573 21.9794 688.574 20.2216C691.592 18.446 695.17 17.5582 699.307 17.5582C703.444 17.5582 707.013 18.446 710.014 20.2216C713.032 21.9794 715.358 24.4474 716.992 27.6257C718.625 30.7862 719.442 34.4794 719.442 38.7053C719.442 42.8956 718.625 46.5799 716.992 49.7582C715.358 52.9187 713.032 55.3867 710.014 57.1623C707.013 58.9201 703.444 59.799 699.307 59.799ZM699.361 51.0099C701.243 51.0099 702.814 50.4773 704.075 49.4119C705.335 48.3288 706.285 46.8551 706.924 44.9908C707.581 43.1264 707.91 41.0046 707.91 38.6254C707.91 36.2461 707.581 34.1243 706.924 32.2599C706.285 30.3956 705.335 28.9219 704.075 27.8388C702.814 26.7557 701.243 26.2141 699.361 26.2141C697.461 26.2141 695.863 26.7557 694.566 27.8388C693.288 28.9219 692.32 30.3956 691.663 32.2599C691.024 34.1243 690.705 36.2461 690.705 38.6254C690.705 41.0046 691.024 43.1264 691.663 44.9908C692.32 46.8551 693.288 48.3288 694.566 49.4119C695.863 50.4773 697.461 51.0099 699.361 51.0099ZM753.054 41.5817V18.0909H764.4V59H753.506V51.5692H753.08C752.157 53.9663 750.621 55.8928 748.473 57.3487C746.342 58.8047 743.741 59.5327 740.669 59.5327C737.935 59.5327 735.529 58.9112 733.451 57.6683C731.374 56.4254 729.749 54.6587 728.578 52.3683C727.423 50.0778 726.837 47.3345 726.82 44.1385V18.0909H738.166V42.1143C738.183 44.5291 738.831 46.4379 740.11 47.8406C741.388 49.2433 743.102 49.9446 745.25 49.9446C746.617 49.9446 747.896 49.6339 749.085 49.0124C750.275 48.3732 751.234 47.4322 751.962 46.1893C752.707 44.9464 753.071 43.4105 753.054 41.5817ZM773.475 59V18.0909H784.475V25.2287H784.901C785.646 22.6896 786.898 20.772 788.656 19.4759C790.414 18.1619 792.438 17.505 794.729 17.505C795.297 17.505 795.909 17.5405 796.566 17.6115C797.223 17.6825 797.8 17.7802 798.297 17.9045V27.9719C797.765 27.8121 797.028 27.6701 796.087 27.5458C795.146 27.4215 794.285 27.3594 793.503 27.3594C791.834 27.3594 790.343 27.7234 789.029 28.4513C787.733 29.1616 786.703 30.1559 785.939 31.4343C785.194 32.7127 784.821 34.1864 784.821 35.8555V59H773.475ZM833.187 59.7724C830.577 59.7724 828.251 59.3196 826.209 58.4141C824.167 57.4908 822.552 56.1325 821.362 54.3391C820.19 52.5281 819.604 50.2731 819.604 47.5742C819.604 45.3015 820.021 43.3928 820.856 41.848C821.691 40.3033 822.827 39.0604 824.265 38.1193C825.703 37.1783 827.337 36.468 829.166 35.9886C831.012 35.5092 832.948 35.1719 834.972 34.9766C837.351 34.728 839.269 34.4972 840.725 34.2841C842.181 34.0533 843.237 33.7159 843.894 33.272C844.551 32.8281 844.879 32.1712 844.879 31.3011V31.1413C844.879 29.4545 844.347 28.1495 843.281 27.2262C842.234 26.3029 840.742 25.8413 838.807 25.8413C836.765 25.8413 835.14 26.294 833.933 27.1996C832.726 28.0874 831.927 29.206 831.536 30.5554L821.042 29.7031C821.575 27.2173 822.623 25.0689 824.185 23.2578C825.748 21.429 827.763 20.0263 830.231 19.0497C832.717 18.0554 835.593 17.5582 838.86 17.5582C841.133 17.5582 843.308 17.8246 845.385 18.3572C847.481 18.8899 849.336 19.7156 850.952 20.8342C852.585 21.9528 853.873 23.391 854.814 25.1488C855.755 26.8888 856.225 28.9751 856.225 31.4077V59H845.465V53.3271H845.146C844.489 54.6055 843.61 55.733 842.509 56.7095C841.408 57.6683 840.085 58.4229 838.541 58.9734C836.996 59.506 835.211 59.7724 833.187 59.7724ZM836.437 51.9421C838.106 51.9421 839.579 51.6136 840.858 50.9567C842.136 50.282 843.139 49.3764 843.867 48.2401C844.595 47.1037 844.959 45.8164 844.959 44.3782V40.0369C844.604 40.2678 844.116 40.4808 843.494 40.6761C842.891 40.8537 842.207 41.0224 841.444 41.1822C840.68 41.3242 839.917 41.4574 839.153 41.5817C838.39 41.6882 837.697 41.7859 837.076 41.8746C835.744 42.07 834.581 42.3807 833.587 42.8068C832.593 43.233 831.82 43.81 831.27 44.538C830.719 45.2482 830.444 46.136 830.444 47.2013C830.444 48.7461 831.003 49.9268 832.122 50.7436C833.258 51.5426 834.697 51.9421 836.437 51.9421ZM883.511 59.799C879.321 59.799 875.717 58.9112 872.698 57.1357C869.697 55.3423 867.389 52.8565 865.773 49.6783C864.175 46.5 863.376 42.8423 863.376 38.7053C863.376 34.5149 864.184 30.8395 865.8 27.679C867.434 24.5007 869.751 22.0238 872.751 20.2482C875.752 18.4549 879.321 17.5582 883.458 17.5582C887.027 17.5582 890.152 18.2063 892.833 19.5025C895.514 20.7986 897.636 22.6186 899.199 24.9624C900.761 27.3061 901.622 30.0582 901.782 33.2188H891.075C890.773 31.1768 889.974 29.5344 888.678 28.2915C887.4 27.0309 885.722 26.4006 883.645 26.4006C881.887 26.4006 880.351 26.88 879.037 27.8388C877.741 28.7798 876.729 30.1559 876.001 31.967C875.273 33.7781 874.909 35.9709 874.909 38.5455C874.909 41.1555 875.264 43.375 875.974 45.2038C876.702 47.0327 877.723 48.4265 879.037 49.3853C880.351 50.3441 881.887 50.8235 883.645 50.8235C884.941 50.8235 886.104 50.5572 887.134 50.0245C888.181 49.4918 889.042 48.7195 889.717 47.7074C890.409 46.6776 890.862 45.4435 891.075 44.0053H901.782C901.604 47.1303 900.752 49.8825 899.225 52.2617C897.716 54.6232 895.63 56.4698 892.966 57.8015C890.303 59.1332 887.151 59.799 883.511 59.799ZM927.53 59.799C923.34 59.799 919.735 58.9112 916.717 57.1357C913.716 55.3423 911.408 52.8565 909.792 49.6783C908.194 46.5 907.395 42.8423 907.395 38.7053C907.395 34.5149 908.203 30.8395 909.819 27.679C911.452 24.5007 913.769 22.0238 916.77 20.2482C919.771 18.4549 923.34 17.5582 927.477 17.5582C931.046 17.5582 934.171 18.2063 936.852 19.5025C939.533 20.7986 941.655 22.6186 943.217 24.9624C944.78 27.3061 945.641 30.0582 945.801 33.2188H935.094C934.792 31.1768 933.993 29.5344 932.697 28.2915C931.418 27.0309 929.741 26.4006 927.663 26.4006C925.905 26.4006 924.369 26.88 923.055 27.8388C921.759 28.7798 920.747 30.1559 920.019 31.967C919.291 33.7781 918.927 35.9709 918.927 38.5455C918.927 41.1555 919.282 43.375 919.993 45.2038C920.721 47.0327 921.742 48.4265 923.055 49.3853C924.369 50.3441 925.905 50.8235 927.663 50.8235C928.959 50.8235 930.122 50.5572 931.152 50.0245C932.2 49.4918 933.061 48.7195 933.736 47.7074C934.428 46.6776 934.881 45.4435 935.094 44.0053H945.801C945.623 47.1303 944.771 49.8825 943.244 52.2617C941.734 54.6232 939.648 56.4698 936.985 57.8015C934.321 59.1332 931.17 59.799 927.53 59.799ZM971.708 59.799C967.5 59.799 963.878 58.9467 960.842 57.2422C957.823 55.5199 955.497 53.0874 953.864 49.9446C952.23 46.7841 951.414 43.0465 951.414 38.7319C951.414 34.5238 952.23 30.8306 953.864 27.6523C955.497 24.4741 957.797 21.9972 960.762 20.2216C963.745 18.446 967.243 17.5582 971.256 17.5582C973.954 17.5582 976.467 17.9933 978.793 18.8633C981.137 19.7156 983.178 21.0028 984.919 22.7251C986.676 24.4474 988.044 26.6136 989.02 29.2237C989.997 31.8161 990.485 34.8523 990.485 38.3324V41.4485H955.941V34.4173H979.805C979.805 32.7837 979.45 31.3366 978.74 30.076C978.029 28.8153 977.044 27.8299 975.783 27.1197C974.54 26.3917 973.093 26.0277 971.442 26.0277C969.72 26.0277 968.193 26.4272 966.861 27.2262C965.547 28.0075 964.517 29.0639 963.771 30.3956C963.026 31.7095 962.644 33.1744 962.626 34.7901V41.4751C962.626 43.4993 962.999 45.2482 963.745 46.7219C964.508 48.1957 965.583 49.332 966.968 50.131C968.352 50.93 969.995 51.3295 971.895 51.3295C973.155 51.3295 974.309 51.152 975.357 50.7969C976.405 50.4418 977.301 49.9091 978.047 49.1989C978.793 48.4886 979.361 47.6186 979.752 46.5888L990.245 47.2812C989.713 49.8026 988.621 52.0043 986.969 53.8864C985.336 55.7507 983.223 57.2067 980.631 58.2543C978.056 59.2841 975.082 59.799 971.708 59.799ZM966.914 12.8175L972.561 0.699219H983.054L974.931 12.8175H966.914ZM1012.96 59.6658C1009.86 59.6658 1007.04 58.8668 1004.52 57.2688C1002.02 55.6531 1000.03 53.2827 998.555 50.1577C997.099 47.0149 996.371 43.1619 996.371 38.5987C996.371 33.9112 997.126 30.0138 998.635 26.9066C1000.14 23.7816 1002.15 21.4467 1004.65 19.902C1007.18 18.3395 1009.94 17.5582 1012.94 17.5582C1015.23 17.5582 1017.14 17.9489 1018.66 18.7301C1020.21 19.4936 1021.45 20.4524 1022.39 21.6065C1023.35 22.7429 1024.08 23.8615 1024.58 24.9624H1024.92V4.45454H1036.24V59H1025.06V52.4482H1024.58C1024.04 53.5845 1023.29 54.712 1022.31 55.8306C1021.35 56.9315 1020.1 57.8459 1018.56 58.5739C1017.03 59.3018 1015.17 59.6658 1012.96 59.6658ZM1016.56 50.6371C1018.39 50.6371 1019.93 50.1399 1021.19 49.1456C1022.47 48.1335 1023.45 46.7219 1024.12 44.9109C1024.82 43.0998 1025.16 40.978 1025.16 38.5455C1025.16 36.1129 1024.82 34 1024.15 32.2067C1023.47 30.4134 1022.5 29.0284 1021.22 28.0518C1019.94 27.0753 1018.39 26.587 1016.56 26.587C1014.69 26.587 1013.12 27.093 1011.84 28.1051C1010.57 29.1172 1009.6 30.5199 1008.94 32.3132C1008.28 34.1065 1007.96 36.1839 1007.96 38.5455C1007.96 40.9247 1008.28 43.0288 1008.94 44.8576C1009.62 46.6687 1010.58 48.0891 1011.84 49.119C1013.12 50.131 1014.69 50.6371 1016.56 50.6371ZM1064.21 59.799C1060.01 59.799 1056.38 58.9467 1053.35 57.2422C1050.33 55.5199 1048 53.0874 1046.37 49.9446C1044.74 46.7841 1043.92 43.0465 1043.92 38.7319C1043.92 34.5238 1044.74 30.8306 1046.37 27.6523C1048 24.4741 1050.3 21.9972 1053.27 20.2216C1056.25 18.446 1059.75 17.5582 1063.76 17.5582C1066.46 17.5582 1068.97 17.9933 1071.3 18.8633C1073.64 19.7156 1075.68 21.0028 1077.42 22.7251C1079.18 24.4474 1080.55 26.6136 1081.52 29.2237C1082.5 31.8161 1082.99 34.8523 1082.99 38.3324V41.4485H1048.45V34.4173H1072.31C1072.31 32.7837 1071.95 31.3366 1071.24 30.076C1070.53 28.8153 1069.55 27.8299 1068.29 27.1197C1067.05 26.3917 1065.6 26.0277 1063.95 26.0277C1062.22 26.0277 1060.7 26.4272 1059.37 27.2262C1058.05 28.0075 1057.02 29.0639 1056.28 30.3956C1055.53 31.7095 1055.15 33.1744 1055.13 34.7901V41.4751C1055.13 43.4993 1055.5 45.2482 1056.25 46.7219C1057.01 48.1957 1058.09 49.332 1059.47 50.131C1060.86 50.93 1062.5 51.3295 1064.4 51.3295C1065.66 51.3295 1066.81 51.152 1067.86 50.7969C1068.91 50.4418 1069.81 49.9091 1070.55 49.1989C1071.3 48.4886 1071.87 47.6186 1072.26 46.5888L1082.75 47.2812C1082.22 49.8026 1081.13 52.0043 1079.47 53.8864C1077.84 55.7507 1075.73 57.2067 1073.14 58.2543C1070.56 59.2841 1067.59 59.799 1064.21 59.799ZM1090.39 59V18.0909H1101.39V25.2287H1101.82C1102.57 22.6896 1103.82 20.772 1105.58 19.4759C1107.33 18.1619 1109.36 17.505 1111.65 17.505C1112.22 17.505 1112.83 17.5405 1113.49 17.6115C1114.14 17.6825 1114.72 17.7802 1115.22 17.9045V27.9719C1114.68 27.8121 1113.95 27.6701 1113.01 27.5458C1112.06 27.4215 1111.2 27.3594 1110.42 27.3594C1108.75 27.3594 1107.26 27.7234 1105.95 28.4513C1104.65 29.1616 1103.62 30.1559 1102.86 31.4343C1102.11 32.7127 1101.74 34.1864 1101.74 35.8555V59H1090.39ZM14.1932 134.772C11.5831 134.772 9.2571 134.32 7.2152 133.414C5.1733 132.491 3.55753 131.132 2.3679 129.339C1.19602 127.528 0.610085 125.273 0.610085 122.574C0.610085 120.301 1.02734 118.393 1.86186 116.848C2.69638 115.303 3.83274 114.06 5.27095 113.119C6.70916 112.178 8.34269 111.468 10.1715 110.989C12.0181 110.509 13.9535 110.172 15.9776 109.977C18.3569 109.728 20.2745 109.497 21.7305 109.284C23.1864 109.053 24.2429 108.716 24.8999 108.272C25.5568 107.828 25.8853 107.171 25.8853 106.301V106.141C25.8853 104.455 25.3526 103.15 24.2873 102.226C23.2397 101.303 21.7482 100.841 19.8129 100.841C17.771 100.841 16.1463 101.294 14.9389 102.2C13.7315 103.087 12.9325 104.206 12.5419 105.555L2.0483 104.703C2.58097 102.217 3.62855 100.069 5.19105 98.2578C6.75355 96.429 8.76882 95.0263 11.2369 94.0497C13.7227 93.0554 16.5991 92.5582 19.8661 92.5582C22.1388 92.5582 24.3139 92.8246 26.3913 93.3572C28.4865 93.8899 30.342 94.7156 31.9577 95.8342C33.5913 96.9528 34.8786 98.391 35.8196 100.149C36.7607 101.889 37.2312 103.975 37.2312 106.408V134H26.4712V128.327H26.1516C25.4947 129.605 24.6158 130.733 23.5149 131.71C22.4141 132.668 21.0913 133.423 19.5465 133.973C18.0018 134.506 16.2173 134.772 14.1932 134.772ZM17.4425 126.942C19.1115 126.942 20.5852 126.614 21.8636 125.957C23.142 125.282 24.1452 124.376 24.8732 123.24C25.6012 122.104 25.9652 120.816 25.9652 119.378V115.037C25.6101 115.268 25.1218 115.481 24.5004 115.676C23.8967 115.854 23.2131 116.022 22.4496 116.182C21.6861 116.324 20.9226 116.457 20.1591 116.582C19.3956 116.688 18.7031 116.786 18.0817 116.875C16.75 117.07 15.587 117.381 14.5927 117.807C13.5984 118.233 12.826 118.81 12.2756 119.538C11.7251 120.248 11.4499 121.136 11.4499 122.201C11.4499 123.746 12.0092 124.927 13.1278 125.744C14.2642 126.543 15.7024 126.942 17.4425 126.942ZM16.3505 87.8175L8.22727 75.6992H18.6942L24.3672 87.8175H16.3505ZM101.531 93.0909L87.229 134H74.4449L60.1427 93.0909H72.1278L80.6238 122.361H81.05L89.5194 93.0909H101.531ZM124.503 134.799C120.366 134.799 116.788 133.92 113.769 132.162C110.769 130.387 108.451 127.919 106.818 124.758C105.184 121.58 104.368 117.896 104.368 113.705C104.368 109.479 105.184 105.786 106.818 102.626C108.451 99.4474 110.769 96.9794 113.769 95.2216C116.788 93.446 120.366 92.5582 124.503 92.5582C128.64 92.5582 132.209 93.446 135.209 95.2216C138.228 96.9794 140.554 99.4474 142.187 102.626C143.821 105.786 144.638 109.479 144.638 113.705C144.638 117.896 143.821 121.58 142.187 124.758C140.554 127.919 138.228 130.387 135.209 132.162C132.209 133.92 128.64 134.799 124.503 134.799ZM124.556 126.01C126.438 126.01 128.009 125.477 129.27 124.412C130.531 123.329 131.481 121.855 132.12 119.991C132.777 118.126 133.105 116.005 133.105 113.625C133.105 111.246 132.777 109.124 132.12 107.26C131.481 105.396 130.531 103.922 129.27 102.839C128.009 101.756 126.438 101.214 124.556 101.214C122.656 101.214 121.058 101.756 119.762 102.839C118.483 103.922 117.516 105.396 116.859 107.26C116.22 109.124 115.9 111.246 115.9 113.625C115.9 116.005 116.22 118.126 116.859 119.991C117.516 121.855 118.483 123.329 119.762 124.412C121.058 125.477 122.656 126.01 124.556 126.01ZM173.775 93.0909V101.614H149.139V93.0909H173.775ZM154.732 83.2898H166.078V121.429C166.078 122.477 166.237 123.293 166.557 123.879C166.877 124.447 167.32 124.847 167.889 125.078C168.475 125.309 169.149 125.424 169.913 125.424C170.445 125.424 170.978 125.38 171.511 125.291C172.043 125.184 172.452 125.104 172.736 125.051L174.52 133.494C173.952 133.672 173.153 133.876 172.123 134.107C171.093 134.355 169.842 134.506 168.368 134.559C165.634 134.666 163.237 134.302 161.177 133.467C159.135 132.633 157.546 131.337 156.41 129.579C155.273 127.821 154.714 125.602 154.732 122.92V83.2898ZM181.165 134V93.0909H192.165V100.229H192.591C193.337 97.6896 194.589 95.772 196.347 94.4759C198.104 93.1619 200.128 92.505 202.419 92.505C202.987 92.505 203.6 92.5405 204.257 92.6115C204.914 92.6825 205.491 92.7802 205.988 92.9045V102.972C205.455 102.812 204.718 102.67 203.777 102.546C202.836 102.422 201.975 102.359 201.194 102.359C199.525 102.359 198.033 102.723 196.719 103.451C195.423 104.162 194.393 105.156 193.63 106.434C192.884 107.713 192.511 109.186 192.511 110.855V134H181.165ZM228.593 134.799C224.385 134.799 220.763 133.947 217.727 132.242C214.708 130.52 212.382 128.087 210.749 124.945C209.115 121.784 208.298 118.047 208.298 113.732C208.298 109.524 209.115 105.831 210.749 102.652C212.382 99.4741 214.681 96.9972 217.647 95.2216C220.63 93.446 224.127 92.5582 228.14 92.5582C230.839 92.5582 233.352 92.9933 235.678 93.8633C238.021 94.7156 240.063 96.0028 241.803 97.7251C243.561 99.4474 244.928 101.614 245.905 104.224C246.881 106.816 247.37 109.852 247.37 113.332V116.449H212.826V109.417H236.69C236.69 107.784 236.335 106.337 235.624 105.076C234.914 103.815 233.929 102.83 232.668 102.12C231.425 101.392 229.978 101.028 228.327 101.028C226.604 101.028 225.077 101.427 223.746 102.226C222.432 103.007 221.402 104.064 220.656 105.396C219.911 106.71 219.529 108.174 219.511 109.79V116.475C219.511 118.499 219.884 120.248 220.63 121.722C221.393 123.196 222.467 124.332 223.852 125.131C225.237 125.93 226.88 126.33 228.779 126.33C230.04 126.33 231.194 126.152 232.242 125.797C233.289 125.442 234.186 124.909 234.932 124.199C235.678 123.489 236.246 122.619 236.636 121.589L247.13 122.281C246.597 124.803 245.505 127.004 243.854 128.886C242.221 130.751 240.108 132.207 237.515 133.254C234.941 134.284 231.967 134.799 228.593 134.799ZM290.776 134.799C286.568 134.799 282.945 133.947 279.909 132.242C276.891 130.52 274.565 128.087 272.931 124.945C271.298 121.784 270.481 118.047 270.481 113.732C270.481 109.524 271.298 105.831 272.931 102.652C274.565 99.4741 276.864 96.9972 279.829 95.2216C282.812 93.446 286.31 92.5582 290.323 92.5582C293.022 92.5582 295.534 92.9933 297.86 93.8633C300.204 94.7156 302.246 96.0028 303.986 97.7251C305.744 99.4474 307.111 101.614 308.087 104.224C309.064 106.816 309.552 109.852 309.552 113.332V116.449H275.009V109.417H298.872C298.872 107.784 298.517 106.337 297.807 105.076C297.097 103.815 296.111 102.83 294.851 102.12C293.608 101.392 292.161 101.028 290.509 101.028C288.787 101.028 287.26 101.427 285.928 102.226C284.614 103.007 283.585 104.064 282.839 105.396C282.093 106.71 281.711 108.174 281.694 109.79V116.475C281.694 118.499 282.066 120.248 282.812 121.722C283.576 123.196 284.65 124.332 286.035 125.131C287.42 125.93 289.062 126.33 290.962 126.33C292.223 126.33 293.377 126.152 294.424 125.797C295.472 125.442 296.369 124.909 297.114 124.199C297.86 123.489 298.428 122.619 298.819 121.589L309.313 122.281C308.78 124.803 307.688 127.004 306.037 128.886C304.403 130.751 302.29 132.207 299.698 133.254C297.123 134.284 294.149 134.799 290.776 134.799ZM350.994 104.756L340.607 105.396C340.429 104.508 340.048 103.709 339.462 102.999C338.876 102.271 338.103 101.694 337.145 101.267C336.204 100.824 335.076 100.602 333.762 100.602C332.004 100.602 330.522 100.974 329.314 101.72C328.107 102.448 327.503 103.425 327.503 104.65C327.503 105.626 327.894 106.452 328.675 107.127C329.456 107.801 330.797 108.343 332.697 108.751L340.101 110.243C344.078 111.06 347.043 112.374 348.997 114.185C350.95 115.996 351.926 118.375 351.926 121.322C351.926 124.004 351.136 126.356 349.556 128.38C347.993 130.404 345.845 131.985 343.111 133.121C340.394 134.24 337.26 134.799 333.709 134.799C328.293 134.799 323.979 133.672 320.765 131.417C317.569 129.144 315.696 126.054 315.145 122.148L326.305 121.562C326.642 123.213 327.459 124.474 328.755 125.344C330.051 126.196 331.711 126.623 333.736 126.623C335.724 126.623 337.322 126.241 338.53 125.477C339.755 124.696 340.376 123.693 340.394 122.468C340.376 121.438 339.941 120.594 339.089 119.938C338.237 119.263 336.923 118.748 335.147 118.393L328.063 116.981C324.068 116.182 321.093 114.797 319.14 112.826C317.205 110.855 316.237 108.343 316.237 105.289C316.237 102.661 316.948 100.397 318.368 98.4975C319.806 96.5977 321.821 95.1328 324.414 94.103C327.024 93.0732 330.078 92.5582 333.576 92.5582C338.743 92.5582 342.809 93.6502 345.774 95.8342C348.757 98.0181 350.497 100.992 350.994 104.756ZM359.071 149.341V93.0909H370.257V99.9624H370.763C371.26 98.8615 371.979 97.7429 372.92 96.6065C373.879 95.4524 375.122 94.4936 376.649 93.7301C378.194 92.9489 380.111 92.5582 382.402 92.5582C385.385 92.5582 388.137 93.3395 390.658 94.902C393.179 96.4467 395.195 98.7816 396.704 101.907C398.213 105.014 398.968 108.911 398.968 113.599C398.968 118.162 398.231 122.015 396.757 125.158C395.301 128.283 393.313 130.653 390.791 132.269C388.288 133.867 385.482 134.666 382.375 134.666C380.173 134.666 378.3 134.302 376.755 133.574C375.228 132.846 373.977 131.931 373 130.831C372.023 129.712 371.278 128.585 370.763 127.448H370.417V149.341H359.071ZM370.177 113.545C370.177 115.978 370.514 118.1 371.189 119.911C371.864 121.722 372.84 123.134 374.119 124.146C375.397 125.14 376.951 125.637 378.779 125.637C380.626 125.637 382.189 125.131 383.467 124.119C384.745 123.089 385.713 121.669 386.37 119.858C387.045 118.029 387.382 115.925 387.382 113.545C387.382 111.184 387.054 109.107 386.397 107.313C385.74 105.52 384.772 104.117 383.494 103.105C382.215 102.093 380.644 101.587 378.779 101.587C376.933 101.587 375.37 102.075 374.092 103.052C372.831 104.028 371.864 105.413 371.189 107.207C370.514 109 370.177 111.113 370.177 113.545ZM418.197 134.772C415.587 134.772 413.261 134.32 411.219 133.414C409.177 132.491 407.561 131.132 406.372 129.339C405.2 127.528 404.614 125.273 404.614 122.574C404.614 120.301 405.031 118.393 405.866 116.848C406.7 115.303 407.837 114.06 409.275 113.119C410.713 112.178 412.347 111.468 414.175 110.989C416.022 110.509 417.957 110.172 419.982 109.977C422.361 109.728 424.278 109.497 425.734 109.284C427.19 109.053 428.247 108.716 428.904 108.272C429.561 107.828 429.889 107.171 429.889 106.301V106.141C429.889 104.455 429.357 103.15 428.291 102.226C427.244 101.303 425.752 100.841 423.817 100.841C421.775 100.841 420.15 101.294 418.943 102.2C417.735 103.087 416.936 104.206 416.546 105.555L406.052 104.703C406.585 102.217 407.632 100.069 409.195 98.2578C410.757 96.429 412.773 95.0263 415.241 94.0497C417.727 93.0554 420.603 92.5582 423.87 92.5582C426.143 92.5582 428.318 92.8246 430.395 93.3572C432.49 93.8899 434.346 94.7156 435.962 95.8342C437.595 96.9528 438.882 98.391 439.824 100.149C440.765 101.889 441.235 103.975 441.235 106.408V134H430.475V128.327H430.156C429.499 129.605 428.62 130.733 427.519 131.71C426.418 132.668 425.095 133.423 423.55 133.973C422.006 134.506 420.221 134.772 418.197 134.772ZM421.446 126.942C423.115 126.942 424.589 126.614 425.868 125.957C427.146 125.282 428.149 124.376 428.877 123.24C429.605 122.104 429.969 120.816 429.969 119.378V115.037C429.614 115.268 429.126 115.481 428.504 115.676C427.901 115.854 427.217 116.022 426.453 116.182C425.69 116.324 424.926 116.457 424.163 116.582C423.4 116.688 422.707 116.786 422.086 116.875C420.754 117.07 419.591 117.381 418.597 117.807C417.602 118.233 416.83 118.81 416.279 119.538C415.729 120.248 415.454 121.136 415.454 122.201C415.454 123.746 416.013 124.927 417.132 125.744C418.268 126.543 419.706 126.942 421.446 126.942ZM468.521 134.799C464.331 134.799 460.726 133.911 457.708 132.136C454.707 130.342 452.399 127.857 450.783 124.678C449.185 121.5 448.386 117.842 448.386 113.705C448.386 109.515 449.194 105.839 450.81 102.679C452.443 99.5007 454.76 97.0238 457.761 95.2482C460.762 93.4549 464.331 92.5582 468.468 92.5582C472.037 92.5582 475.162 93.2063 477.843 94.5025C480.524 95.7986 482.646 97.6186 484.208 99.9624C485.771 102.306 486.632 105.058 486.792 108.219H476.085C475.783 106.177 474.984 104.534 473.688 103.292C472.41 102.031 470.732 101.401 468.654 101.401C466.896 101.401 465.361 101.88 464.047 102.839C462.751 103.78 461.738 105.156 461.01 106.967C460.282 108.778 459.919 110.971 459.919 113.545C459.919 116.156 460.274 118.375 460.984 120.204C461.712 122.033 462.733 123.426 464.047 124.385C465.361 125.344 466.896 125.824 468.654 125.824C469.95 125.824 471.113 125.557 472.143 125.025C473.191 124.492 474.052 123.719 474.727 122.707C475.419 121.678 475.872 120.444 476.085 119.005H486.792C486.614 122.13 485.762 124.882 484.235 127.262C482.726 129.623 480.639 131.47 477.976 132.801C475.313 134.133 472.161 134.799 468.521 134.799ZM512.699 134.799C508.491 134.799 504.869 133.947 501.833 132.242C498.815 130.52 496.489 128.087 494.855 124.945C493.222 121.784 492.405 118.047 492.405 113.732C492.405 109.524 493.222 105.831 494.855 102.652C496.489 99.4741 498.788 96.9972 501.753 95.2216C504.736 93.446 508.234 92.5582 512.247 92.5582C514.946 92.5582 517.458 92.9933 519.784 93.8633C522.128 94.7156 524.17 96.0028 525.91 97.7251C527.668 99.4474 529.035 101.614 530.011 104.224C530.988 106.816 531.476 109.852 531.476 113.332V116.449H496.932V109.417H520.796C520.796 107.784 520.441 106.337 519.731 105.076C519.021 103.815 518.035 102.83 516.774 102.12C515.532 101.392 514.084 101.028 512.433 101.028C510.711 101.028 509.184 101.427 507.852 102.226C506.538 103.007 505.508 104.064 504.763 105.396C504.017 106.71 503.635 108.174 503.617 109.79V116.475C503.617 118.499 503.99 120.248 504.736 121.722C505.5 123.196 506.574 124.332 507.959 125.131C509.344 125.93 510.986 126.33 512.886 126.33C514.147 126.33 515.301 126.152 516.348 125.797C517.396 125.442 518.293 124.909 519.038 124.199C519.784 123.489 520.352 122.619 520.743 121.589L531.236 122.281C530.704 124.803 529.612 127.004 527.96 128.886C526.327 130.751 524.214 132.207 521.622 133.254C519.047 134.284 516.073 134.799 512.699 134.799Z" fill="#142849"/>
</svg>
