<svg width="146" height="25" viewBox="0 0 146 25" fill="none" xmlns="http://www.w3.org/2000/svg">
<path d="M4.95312 0.71875V24H0.046875V0.71875H4.95312ZM8.75 24V21.0938L20.375 4.78125H8.71875V0.71875H26.5469V3.64062L14.9219 19.9375H26.5781V24H8.75ZM35.2656 0.71875V24H30.3594V0.71875H35.2656ZM51.9531 24L45.2969 0.71875H50.6719L54.5312 16.8906H54.7344L58.9688 0.71875H63.5781L67.7969 16.9375H68.0156L71.8594 0.71875H77.25L70.5781 24H65.7812L61.3594 8.78125H61.1719L56.7656 24H51.9531ZM90.3438 24.3125C88.2812 24.3125 86.4271 23.8438 84.7812 22.9062C83.1354 21.9688 81.8333 20.6094 80.875 18.8281C79.9167 17.0469 79.4375 14.8958 79.4375 12.375C79.4375 9.83333 79.9167 7.67188 80.875 5.89062C81.8333 4.10938 83.1354 2.75 84.7812 1.8125C86.4271 0.875 88.2812 0.40625 90.3438 0.40625C92.4062 0.40625 94.2552 0.875 95.8906 1.8125C97.5365 2.75 98.8385 4.10938 99.7969 5.89062C100.755 7.67188 101.234 9.83333 101.234 12.375C101.234 14.9167 100.755 17.0781 99.7969 18.8594C98.8385 20.6302 97.5365 21.9844 95.8906 22.9219C94.2552 23.849 92.4062 24.3125 90.3438 24.3125ZM84.4219 12.375C84.4219 14.8333 84.9583 16.7135 86.0312 18.0156C87.1146 19.3177 88.5521 19.9688 90.3438 19.9688C92.125 19.9688 93.5521 19.3177 94.625 18.0156C95.7083 16.7135 96.25 14.8333 96.25 12.375C96.25 9.90625 95.7083 8.02083 94.625 6.71875C93.5521 5.40625 92.125 4.75 90.3438 4.75C88.5521 4.75 87.1146 5.40625 86.0312 6.71875C84.9583 8.02083 84.4219 9.90625 84.4219 12.375ZM104.891 24V0.71875H114.047C116.693 0.71875 118.745 1.41146 120.203 2.79688C121.672 4.18229 122.406 6.02604 122.406 8.32812C122.406 9.92188 122.052 11.2865 121.344 12.4219C120.635 13.5469 119.62 14.3906 118.297 14.9531L123.234 24H117.797L113.391 15.75H109.797V24H104.891ZM109.797 11.7969H113.125C115.938 11.7969 117.344 10.6406 117.344 8.32812C117.344 7.17188 116.995 6.28646 116.297 5.67188C115.599 5.05729 114.536 4.75 113.109 4.75H109.797V11.7969ZM125.922 24V0.71875H130.828V10.9844H131.125L139.516 0.71875H145.406L136.781 11.1406L145.516 24H139.609L133.25 14.4375L130.828 17.3906V24H125.922Z" fill="white"/>
</svg>
