<svg width="38" height="38" viewBox="0 0 38 38" fill="none" xmlns="http://www.w3.org/2000/svg">
<path d="M17.417 26.917H20.5837V20.5837H26.917V17.417H20.5837V11.0837H17.417V17.417H11.0837V20.5837H17.417V26.917ZM19.0003 34.8337C16.81 34.8337 14.7517 34.4246 12.8253 33.6066C10.8989 32.7621 9.22324 31.6274 7.79824 30.2024C6.37324 28.7774 5.23852 27.1017 4.39408 25.1753C3.57602 23.2489 3.16699 21.1906 3.16699 19.0003C3.16699 16.81 3.57602 14.7517 4.39408 12.8253C5.23852 10.8989 6.37324 9.22324 7.79824 7.79824C9.22324 6.37324 10.8989 5.25171 12.8253 4.43366C14.7517 3.58921 16.81 3.16699 19.0003 3.16699C21.1906 3.16699 23.2489 3.58921 25.1753 4.43366C27.1017 5.25171 28.7774 6.37324 30.2024 7.79824C31.6274 9.22324 32.7489 10.8989 33.567 12.8253C34.4114 14.7517 34.8337 16.81 34.8337 19.0003C34.8337 21.1906 34.4114 23.2489 33.567 25.1753C32.7489 27.1017 31.6274 28.7774 30.2024 30.2024C28.7774 31.6274 27.1017 32.7621 25.1753 33.6066C23.2489 34.4246 21.1906 34.8337 19.0003 34.8337ZM19.0003 31.667C22.5364 31.667 25.5316 30.4399 27.9857 27.9857C30.4399 25.5316 31.667 22.5364 31.667 19.0003C31.667 15.4642 30.4399 12.4691 27.9857 10.0149C25.5316 7.56074 22.5364 6.33366 19.0003 6.33366C15.4642 6.33366 12.4691 7.56074 10.0149 10.0149C7.56074 12.4691 6.33366 15.4642 6.33366 19.0003C6.33366 22.5364 7.56074 25.5316 10.0149 27.9857C12.4691 30.4399 15.4642 31.667 19.0003 31.667Z" fill="#1D1B20"/>
</svg>
