<svg width="40" height="40" viewBox="0 0 40 40" fill="none" xmlns="http://www.w3.org/2000/svg">
<path d="M8.33301 25H6.66634C5.78229 25 4.93444 24.6489 4.30932 24.0237C3.6842 23.3986 3.33301 22.5508 3.33301 21.6667V6.66671C3.33301 5.78265 3.6842 4.93481 4.30932 4.30968C4.93444 3.68456 5.78229 3.33337 6.66634 3.33337H21.6663C22.5504 3.33337 23.3982 3.68456 24.0234 4.30968C24.6485 4.93481 24.9997 5.78265 24.9997 6.66671V8.33337M18.333 15H33.333C35.174 15 36.6663 16.4924 36.6663 18.3334V33.3334C36.6663 35.1743 35.174 36.6667 33.333 36.6667H18.333C16.4921 36.6667 14.9997 35.1743 14.9997 33.3334V18.3334C14.9997 16.4924 16.4921 15 18.333 15Z" stroke="#1E1E1E" stroke-width="4" stroke-linecap="round" stroke-linejoin="round"/>
</svg>
